<svg width="360" height="733" viewBox="0 0 360 733" fill="none" xmlns="http://www.w3.org/2000/svg">
<g id="Aside">
<rect width="360" height="732.562" fill="#F7F9FC"/>
<g id="Aside_2">
<rect width="209" height="732.562" transform="translate(75.5)" fill="#F7F9FC"/>
<g id="Main">
<g id="Container">
<g id="Header">
<g id="Header_2">
<g id="Text">
<text id="Name" fill="#2E2E48" xml:space="preserve" style="white-space: pre" font-family="Outfit" font-size="20" font-weight="bold" letter-spacing="-0.03em"><tspan x="96.4773" y="37.4">Krzysztof Piskorski</tspan></text>
<text id="Age: 22" fill="#ACB1C3" xml:space="preserve" style="white-space: pre" font-family="Outfit" font-size="9" letter-spacing="0.02em"><tspan x="164" y="50.33">Age: 22</tspan></text>
</g>
</g>
</g>
<g id="Divider" clip-path="url(#clip0_374_11599)">
<rect id="divider" x="95.6491" y="66.1491" width="168.702" height="0.298295" stroke="#E2E6EE" stroke-width="0.298295" stroke-linejoin="round"/>
</g>
<g id="Infos">
<g id="Row">
<g id="Featured icon">
<g clip-path="url(#clip1_374_11599)">
<rect id="Rectangle" x="95.5" y="79.5966" width="19.0909" height="19.0909" rx="9.54545" fill="#E2E6EE"/>
<g id="basic/mail">
<path id="Icon" d="M109.023 93.1193H101.068C100.519 93.1193 100.074 92.6741 100.074 92.125V86.1158C100.097 85.5836 100.535 85.1642 101.068 85.1647H109.023C109.572 85.1647 110.017 85.6099 110.017 86.1591V92.125C110.017 92.6741 109.572 93.1193 109.023 93.1193ZM101.068 87.0877V92.125H109.023V87.0877L105.045 89.7386L101.068 87.0877ZM101.466 86.1591L105.045 88.5454L108.625 86.1591H101.466Z" fill="#79819A"/>
</g>
</g>
</g>
<g id="Text_2">
<text id="Subtitle" fill="#79819A" xml:space="preserve" style="white-space: pre" font-family="DM Sans" font-size="7.5" letter-spacing="0.01em"><tspan x="124.136" y="86.1541">Email</tspan></text>
<text id="Subtitle_2" fill="#47516B" xml:space="preserve" style="white-space: pre" font-family="DM Sans" font-size="8" font-weight="500" letter-spacing="0em"><tspan x="124.136" y="97.7109">k.n.piskorski@gmail.com</tspan></text>
</g>
</g>
<g id="Row_2">
<g id="Featured icon_2">
<g clip-path="url(#clip2_374_11599)">
<rect id="Rectangle_2" x="95.5" y="114.301" width="19.0909" height="19.0909" rx="9.54545" fill="#E2E6EE"/>
<g id="basic/phone">
<path id="Icon_2" d="M108.524 127.824C104.283 127.83 101.064 124.572 101.068 120.368C101.068 120.093 101.291 119.869 101.565 119.869H102.877C103.124 119.869 103.333 120.05 103.369 120.294C103.456 120.878 103.626 121.447 103.874 121.983L103.925 122.093C103.996 122.246 103.948 122.428 103.811 122.527C103.404 122.817 103.249 123.401 103.566 123.857C103.963 124.429 104.464 124.929 105.036 125.326C105.491 125.643 106.075 125.488 106.366 125.081C106.464 124.944 106.646 124.896 106.8 124.967L106.909 125.017C107.445 125.266 108.014 125.436 108.598 125.522C108.842 125.559 109.023 125.768 109.023 126.014V127.327C109.023 127.601 108.8 127.824 108.525 127.824L108.524 127.824Z" fill="#79819A"/>
</g>
</g>
</g>
<g id="Text_3">
<text id="Subtitle_3" fill="#79819A" xml:space="preserve" style="white-space: pre" font-family="DM Sans" font-size="7.5" letter-spacing="0.01em"><tspan x="124.136" y="120.859">Phone</tspan></text>
<text id="Subtitle_4" fill="#47516B" xml:space="preserve" style="white-space: pre" font-family="DM Sans" font-size="8" font-weight="500" letter-spacing="0em"><tspan x="124.136" y="132.415">+48666723089</tspan></text>
</g>
</g>
<g id="Row_3">
<g id="Featured icon_3">
<g clip-path="url(#clip3_374_11599)">
<rect id="Rectangle_3" x="95.5" y="149.653" width="19.0909" height="19.0909" rx="9.54545" fill="#E2E6EE"/>
<g id="basic/location">
<path id="Icon_3" d="M105.045 163.673C104.417 163.138 103.835 162.55 103.305 161.918C102.51 160.968 101.565 159.553 101.565 158.204C101.565 156.796 102.413 155.526 103.714 154.988C105.015 154.449 106.512 154.747 107.507 155.743C108.162 156.395 108.528 157.281 108.526 158.204C108.526 159.553 107.581 160.968 106.785 161.918C106.255 162.55 105.673 163.138 105.045 163.673ZM105.045 156.713C104.513 156.713 104.02 156.997 103.754 157.459C103.487 157.92 103.487 158.489 103.754 158.95C104.02 159.412 104.513 159.696 105.045 159.696C105.869 159.696 106.537 159.028 106.537 158.204C106.537 157.381 105.869 156.713 105.045 156.713Z" fill="#79819A"/>
</g>
</g>
</g>
<g id="Text_4">
<text id="Subtitle_5" fill="#79819A" xml:space="preserve" style="white-space: pre" font-family="DM Sans" font-size="7.5" letter-spacing="0.01em"><tspan x="124.136" y="155.563">Address</tspan></text>
<text id="Subtitle_6" fill="#47516B" xml:space="preserve" style="white-space: pre" font-family="DM Sans" font-size="8" font-weight="500" letter-spacing="0em"><tspan x="124.136" y="167.12">Wroc&#x142;aw, Kr&#xf3;lewiecka</tspan></text>
</g>
</g>
<g id="Row_4">
<g id="Featured icon_4">
<g clip-path="url(#clip4_374_11599)">
<rect id="Rectangle_4" x="95.5" y="191.466" width="19.0909" height="19.0909" rx="9.54545" fill="#E2E6EE"/>
<g id="basic/location_2" clip-path="url(#clip5_374_11599)">
<path id="Vector" d="M105.045 196.239L99.0795 199.42L101.249 200.576V203.758L105.045 205.784L108.842 203.758V200.576L109.927 199.998V203.663H111.011V199.42L105.045 196.239ZM108.744 199.42L105.045 201.393L101.347 199.42L105.045 197.448L108.744 199.42ZM107.757 203.127L105.045 204.575L102.334 203.127V201.155L105.045 202.602L107.757 201.155V203.127Z" fill="#79819A"/>
</g>
</g>
</g>
<g id="Text_5">
<text id="Subtitle_7" fill="#79819A" xml:space="preserve" style="white-space: pre" font-family="DM Sans" font-size="7.5" letter-spacing="0.01em"><tspan x="124.136" y="190.268">Education</tspan></text>
<g id="Frame 1">
<text id="Subtitle_8" fill="#47516B" xml:space="preserve" style="white-space: pre" font-family="DM Sans" font-size="8" font-weight="500" letter-spacing="0em"><tspan x="124.136" y="201.825">IT technician</tspan></text>
<text id="Subtitle_9" fill="#95AAFB" xml:space="preserve" style="white-space: pre" font-family="DM Sans" font-size="7" letter-spacing="0.01em"><tspan x="124.136" y="210.984">ZSE Gniezno</tspan></text>
</g>
</g>
</g>
</g>
<g id="Divider_2" clip-path="url(#clip6_374_11599)">
<rect id="divider_2" x="95.6491" y="231.462" width="168.702" height="0.298295" stroke="#E2E6EE" stroke-width="0.298295" stroke-linejoin="round"/>
</g>
<g id="Socials">
<text id="Subtitle_10" fill="#79819A" xml:space="preserve" style="white-space: pre" font-family="DM Sans" font-size="7.5" letter-spacing="0.01em"><tspan x="95.5" y="251.467">Socials</tspan></text>
<g id="Row_5">
<g id="Social icon">
<g clip-path="url(#clip7_374_11599)">
<rect x="95.5" y="267.875" width="19.0909" height="19.0909" rx="9.54545" fill="white"/>
<g id="GitHub">
<path id="Vector_2" d="M103.952 266.98C99.3778 267.477 95.6989 271.156 95.2017 275.631C94.7045 280.304 97.3892 284.48 101.466 286.071C101.764 286.17 102.063 285.972 102.063 285.574V283.983C102.063 283.983 101.665 284.082 101.168 284.082C99.7756 284.082 99.179 282.889 99.0795 282.193C98.9801 281.795 98.7813 281.497 98.483 281.199C98.1847 281.099 98.0852 281.099 98.0852 281C98.0852 280.801 98.3835 280.801 98.483 280.801C99.0795 280.801 99.5767 281.497 99.7756 281.795C100.273 282.591 100.869 282.79 101.168 282.79C101.565 282.79 101.864 282.69 102.063 282.591C102.162 281.895 102.46 281.199 103.057 280.801C100.77 280.304 99.0795 279.011 99.0795 276.824C99.0795 275.73 99.5767 274.636 100.273 273.841C100.173 273.642 100.074 273.145 100.074 272.449C100.074 272.051 100.074 271.455 100.372 270.858C100.372 270.858 101.764 270.858 103.156 272.151C103.653 271.952 104.349 271.852 105.045 271.852C105.741 271.852 106.438 271.952 107.034 272.151C108.327 270.858 109.818 270.858 109.818 270.858C110.017 271.455 110.017 272.051 110.017 272.449C110.017 273.244 109.918 273.642 109.818 273.841C110.514 274.636 111.011 275.631 111.011 276.824C111.011 279.011 109.321 280.304 107.034 280.801C107.631 281.298 108.028 282.193 108.028 283.088V285.673C108.028 285.972 108.327 286.27 108.724 286.17C112.403 284.679 114.989 281.099 114.989 276.923C114.989 270.957 109.918 266.284 103.952 266.98Z" fill="black"/>
</g>
</g>
</g>
<g id="Text_6">
<text id="Subtitle_11" fill="#79819A" xml:space="preserve" style="white-space: pre" font-family="DM Sans" font-size="7.5" letter-spacing="0.01em"><tspan x="124.136" y="273.785">GitHub</tspan></text>
<text id="Subtitle_12" fill="#47516B" xml:space="preserve" style="white-space: pre" font-family="DM Sans" font-size="8" font-weight="500" letter-spacing="0em"><tspan x="124.136" y="285.342">@atkki</tspan></text>
</g>
</g>
<g id="Row_6">
<g id="Featured icon_5">
<g clip-path="url(#clip8_374_11599)">
<rect id="Rectangle_5" x="95.5" y="303.08" width="19.0909" height="19.0909" rx="9.54545" fill="#516CF7"/>
<g id="basic/link_02">
<path id="Icon_4" d="M103.288 316.868C102.283 316.868 101.376 316.263 100.992 315.334C100.607 314.405 100.819 313.336 101.53 312.625L102.585 311.57L103.288 312.273L102.234 313.327C101.857 313.704 101.71 314.254 101.847 314.768C101.985 315.283 102.387 315.685 102.902 315.823C103.417 315.961 103.966 315.814 104.343 315.437L105.397 314.382L106.1 315.086L105.046 316.14C104.581 316.608 103.948 316.87 103.288 316.868ZM103.639 314.734L102.936 314.031L106.452 310.516L107.155 311.219L103.64 314.733L103.639 314.734ZM107.507 313.679L106.803 312.976L107.858 311.922C108.24 311.546 108.391 310.995 108.254 310.477C108.117 309.959 107.712 309.554 107.194 309.417C106.676 309.28 106.125 309.431 105.749 309.813L104.694 310.867L103.991 310.164L105.046 309.109C106.018 308.146 107.586 308.149 108.554 309.117C109.521 310.085 109.525 311.653 108.561 312.625L107.507 313.679V313.679Z" fill="#F8F2FC"/>
</g>
</g>
</g>
<g id="Text_7">
<text id="Subtitle_13" fill="#79819A" xml:space="preserve" style="white-space: pre" font-family="DM Sans" font-size="7" letter-spacing="0.01em"><tspan x="124.136" y="308.819">Interactive resume (screenshots, videos)</tspan></text>
<text id="Subtitle_14" fill="#47516B" xml:space="preserve" style="white-space: pre" font-family="DM Sans" font-size="8" font-weight="500" letter-spacing="0em"><tspan x="124.136" y="321.046">https://kki.ovh/resume</tspan></text>
</g>
</g>
</g>
<g id="Divider_3" clip-path="url(#clip9_374_11599)">
<rect id="divider_3" x="95.6491" y="336.467" width="168.702" height="0.298295" stroke="#E2E6EE" stroke-width="0.298295" stroke-linejoin="round"/>
</g>
<g id="Languagues">
<text id="Subtitle_15" fill="#79819A" xml:space="preserve" style="white-space: pre" font-family="DM Sans" font-size="8" letter-spacing="0em"><tspan x="95.5" y="357.643">Languages</tspan></text>
<g id="Row_7">
<g id=" poland" clip-path="url(#clip10_374_11599)">
<g id="artwork">
<g clip-path="url(#clip11_374_11599)">
<rect x="95.5" y="375.881" width="26.25" height="19.0909" rx="2.38636" fill="#AF010D"/>
<path id="vector" fill-rule="evenodd" clip-rule="evenodd" d="M95.5 375.881H121.75V385.426H95.5V375.881Z" fill="#F8F2FC"/>
</g>
</g>
</g>
<g id="Text_8">
<text id="Subtitle_16" fill="#47516B" xml:space="preserve" style="white-space: pre" font-family="DM Sans" font-size="8" font-weight="500" letter-spacing="0em"><tspan x="131.295" y="381.961">Polish</tspan></text>
<text id="Subtitle_17" fill="#79819A" xml:space="preserve" style="white-space: pre" font-family="DM Sans" font-size="7.15909" letter-spacing="0.01em"><tspan x="131.295" y="393.833">Native</tspan></text>
</g>
</g>
<g id="Row_8">
<g id=" united-kingdom" clip-path="url(#clip12_374_11599)">
<g id="artwork_2">
<g clip-path="url(#clip13_374_11599)">
<rect x="95.5" y="415.585" width="26.25" height="19.0909" rx="2.38636" fill="#1A47B8"/>
<path id="vector_2" fill-rule="evenodd" clip-rule="evenodd" d="M98.2925 415.585H95.5V418.767L118.942 434.676L121.75 434.676V431.494L98.2925 415.585Z" fill="white"/>
<path id="vector_3" d="M96.4314 415.585L121.75 432.812V434.676H120.84L95.5 417.431V415.585H96.4314Z" fill="#F93939"/>
<path id="vector_4" fill-rule="evenodd" clip-rule="evenodd" d="M119.25 415.585H121.75V418.767C121.75 418.767 105.512 429.366 98.0001 434.676H95.5001V431.494L119.25 415.585Z" fill="white"/>
<path id="vector_5" d="M121.75 415.585H120.902L95.5 432.827V434.676H96.4314L121.75 417.445V415.585Z" fill="#F93939"/>
<path id="vector_6" fill-rule="evenodd" clip-rule="evenodd" d="M105.046 415.585H112.225V421.474H121.75V428.784H112.225V434.676H105.046V428.784H95.5V421.474H105.046V415.585Z" fill="white"/>
<path id="vector_7" fill-rule="evenodd" clip-rule="evenodd" d="M106.553 415.585H110.697V422.928H121.75V427.333H110.697V434.676H106.553V427.333H95.5V422.928H106.553V415.585Z" fill="#F93939"/>
</g>
</g>
</g>
<g id="Text_9">
<text id="Subtitle_18" fill="#47516B" xml:space="preserve" style="white-space: pre" font-family="DM Sans" font-size="8" font-weight="500" letter-spacing="0em"><tspan x="131.295" y="418.665">English</tspan></text>
<text id="Subtitle_19" fill="#79819A" xml:space="preserve" style="white-space: pre" font-family="DM Sans" font-size="7.5" letter-spacing="0.01em"><tspan x="131.295" y="429.881">C1: reading&#x2028;</tspan><tspan x="131.295" y="437.881">B1: speaking, writing</tspan></text>
</g>
</g>
</g>
<g id="Divider_4" clip-path="url(#clip14_374_11599)">
<rect id="divider_4" x="95.6491" y="452.473" width="168.702" height="0.298295" stroke="#E2E6EE" stroke-width="0.298295" stroke-linejoin="round"/>
</g>
<g id="Skillset">
<g id="Subtitle_20">
<text fill="#79819A" xml:space="preserve" style="white-space: pre" font-family="DM Sans" font-size="7.15909" letter-spacing="0.01em"><tspan x="95.5" y="473.251">Technical </tspan></text>
<text fill="#79819A" xml:space="preserve" style="white-space: pre" font-family="DM Sans" font-size="7.5" letter-spacing="0.01em"><tspan x="129.082" y="473.251">skills</tspan></text>
</g>
<g id="Row_9">
<g id="Text_10">
<g id="TextRow">
<g id="misc/dot_04_l">
<path id="Icon_5" d="M100.5 497.322C99.3494 497.322 98.4167 496.389 98.4167 495.239C98.4167 494.088 99.3494 493.155 100.5 493.155C101.651 493.155 102.583 494.088 102.583 495.239C102.583 496.389 101.651 497.322 100.5 497.322Z" fill="#95AAFB"/>
</g>
<text id="Text_11" fill="#232339" xml:space="preserve" style="white-space: pre" font-family="DM Sans" font-size="8" letter-spacing="0em"><tspan x="110.5" y="497.967">C++14</tspan></text>
</g>
<g id="TextRow_2">
<g id="misc/dot_04_l_2">
<path id="Icon_6" d="M100.5 509.708C99.3494 509.708 98.4167 508.776 98.4167 507.625C98.4167 506.474 99.3494 505.542 100.5 505.542C101.651 505.542 102.583 506.474 102.583 507.625C102.583 508.776 101.651 509.708 100.5 509.708Z" fill="#95AAFB"/>
</g>
<text id="Text_12" fill="#232339" xml:space="preserve" style="white-space: pre" font-family="DM Sans" font-size="8" letter-spacing="0em"><tspan x="110.5" y="510.353">Scripting: Lua, JS (ES6), TypeScript</tspan></text>
</g>
<g id="TextRow_3">
<g id="misc/dot_04_l_3">
<path id="Icon_7" d="M100.5 522.095C99.3494 522.095 98.4167 521.162 98.4167 520.011C98.4167 518.861 99.3494 517.928 100.5 517.928C101.651 517.928 102.583 518.861 102.583 520.011C102.583 521.162 101.651 522.095 100.5 522.095Z" fill="#95AAFB"/>
</g>
<text id="Text_13" fill="#232339" xml:space="preserve" style="white-space: pre" font-family="DM Sans" font-size="8" letter-spacing="0em"><tspan x="110.5" y="522.739">Unreal Engine 5</tspan></text>
</g>
<g id="TextRow_4">
<g id="misc/dot_04_l_4">
<path id="Icon_8" d="M100.5 534.481C99.3494 534.481 98.4167 533.548 98.4167 532.398C98.4167 531.247 99.3494 530.314 100.5 530.314C101.651 530.314 102.583 531.247 102.583 532.398C102.583 533.548 101.651 534.481 100.5 534.481Z" fill="#95AAFB"/>
</g>
<text id="Text_14" fill="#232339" xml:space="preserve" style="white-space: pre" font-family="DM Sans" font-size="8" letter-spacing="0em"><tspan x="110.5" y="535.126">CI / CD, Linux knowledge</tspan></text>
</g>
<g id="TextRow_5">
<g id="misc/dot_04_l_5">
<path id="Icon_9" d="M100.5 546.867C99.3494 546.867 98.4167 545.935 98.4167 544.784C98.4167 543.633 99.3494 542.701 100.5 542.701C101.651 542.701 102.583 543.633 102.583 544.784C102.583 545.935 101.651 546.867 100.5 546.867Z" fill="#95AAFB"/>
</g>
<text id="Text_15" fill="#232339" xml:space="preserve" style="white-space: pre" font-family="DM Sans" font-size="8" letter-spacing="0em"><tspan x="110.5" y="547.512">Version control, Git</tspan></text>
</g>
<g id="TextRow_6">
<g id="misc/dot_04_l_6">
<path id="Icon_10" d="M100.5 559.254C99.3494 559.254 98.4167 558.321 98.4167 557.17C98.4167 556.02 99.3494 555.087 100.5 555.087C101.651 555.087 102.583 556.02 102.583 557.17C102.583 558.321 101.651 559.254 100.5 559.254Z" fill="#95AAFB"/>
</g>
<text id="Text_16" fill="#232339" xml:space="preserve" style="white-space: pre" font-family="DM Sans" font-size="8" letter-spacing="0em"><tspan x="110.5" y="559.898">Audio engineering, music production</tspan></text>
</g>
</g>
<g id="MusicPreview">
<rect x="96" y="572.216" width="66" height="19" rx="7.5" fill="#F7F9FC"/>
<g id="Content">
<g id="Icon / small">
<g id="Perm media">
<path id="Vector_3" d="M113 577.216H107C106.45 577.216 106 577.621 106 578.116V583.516C106 584.011 106.45 584.416 107 584.416H113C113.55 584.416 114 584.011 114 583.516V578.116C114 577.621 113.55 577.216 113 577.216ZM113 583.516H107V578.116H113V583.516ZM109.25 583.066C109.94 583.066 110.5 582.562 110.5 581.941V579.466H112V578.566H110V581.045C109.79 580.901 109.535 580.816 109.25 580.816C108.56 580.816 108 581.32 108 581.941C108 582.562 108.56 583.066 109.25 583.066ZM105 579.016H104V585.316C104 585.811 104.45 586.216 105 586.216H112V585.316H105V579.016Z" fill="#9251F7"/>
</g>
</g>
<text id="PREVIEW" fill="#9251F7" xml:space="preserve" style="white-space: pre" font-family="DM Sans" font-size="8" font-weight="500" letter-spacing="0em"><tspan x="119.441" y="584.444">PREVIEW</tspan></text>
</g>
<rect x="96" y="572.216" width="66" height="19" rx="7.5" stroke="#9251F7"/>
</g>
</g>
</g>
<g id="Divider_5" clip-path="url(#clip15_374_11599)">
<rect id="divider_5" x="95.6491" y="604.865" width="168.702" height="0.298295" stroke="#E2E6EE" stroke-width="0.298295" stroke-linejoin="round"/>
</g>
<g id="Soft skills">
<text id="Subtitle_21" fill="#79819A" xml:space="preserve" style="white-space: pre" font-family="DM Sans" font-size="7.5" letter-spacing="0.01em"><tspan x="95.5" y="624.87">Soft skills</tspan></text>
<g id="Row_10">
<g id="Text_17">
<g id="TextRow_7">
<g id="misc/dot_04_l_7">
<path id="Icon_11" d="M100.5 647.714C99.3494 647.714 98.4167 646.781 98.4167 645.631C98.4167 644.48 99.3494 643.547 100.5 643.547C101.651 643.547 102.583 644.48 102.583 645.631C102.583 646.781 101.651 647.714 100.5 647.714Z" fill="#95AAFB"/>
</g>
<text id="Text_18" fill="#232339" xml:space="preserve" style="white-space: pre" font-family="DM Sans" font-size="8" letter-spacing="0em"><tspan x="110.5" y="648.359">Team Player</tspan></text>
</g>
<g id="TextRow_8">
<g id="misc/dot_04_l_8">
<path id="Icon_12" d="M100.5 660.1C99.3494 660.1 98.4167 659.168 98.4167 658.017C98.4167 656.866 99.3494 655.934 100.5 655.934C101.651 655.934 102.583 656.866 102.583 658.017C102.583 659.168 101.651 660.1 100.5 660.1Z" fill="#95AAFB"/>
</g>
<text id="Text_19" fill="#232339" xml:space="preserve" style="white-space: pre" font-family="DM Sans" font-size="8" letter-spacing="0em"><tspan x="110.5" y="660.745">Responsible</tspan></text>
</g>
<g id="TextRow_9">
<g id="misc/dot_04_l_9">
<path id="Icon_13" d="M100.5 672.487C99.3494 672.487 98.4167 671.554 98.4167 670.403C98.4167 669.253 99.3494 668.32 100.5 668.32C101.651 668.32 102.583 669.253 102.583 670.403C102.583 671.554 101.651 672.487 100.5 672.487Z" fill="#95AAFB"/>
</g>
<text id="Text_20" fill="#232339" xml:space="preserve" style="white-space: pre" font-family="DM Sans" font-size="8" letter-spacing="0em"><tspan x="110.5" y="673.131">Resistant to stress</tspan></text>
</g>
<g id="TextRow_10">
<g id="misc/dot_04_l_10">
<path id="Icon_14" d="M100.5 684.873C99.3494 684.873 98.4167 683.94 98.4167 682.79C98.4167 681.639 99.3494 680.706 100.5 680.706C101.651 680.706 102.583 681.639 102.583 682.79C102.583 683.94 101.651 684.873 100.5 684.873Z" fill="#95AAFB"/>
</g>
<text id="Text_21" fill="#232339" xml:space="preserve" style="white-space: pre" font-family="DM Sans" font-size="8" letter-spacing="0em"><tspan x="110.5" y="685.518">Creative</tspan></text>
</g>
<g id="TextRow_11">
<g id="misc/dot_04_l_11">
<path id="Icon_15" d="M100.5 697.259C99.3494 697.259 98.4167 696.327 98.4167 695.176C98.4167 694.026 99.3494 693.093 100.5 693.093C101.651 693.093 102.583 694.026 102.583 695.176C102.583 696.327 101.651 697.259 100.5 697.259Z" fill="#95AAFB"/>
</g>
<text id="Text_22" fill="#232339" xml:space="preserve" style="white-space: pre" font-family="DM Sans" font-size="8" letter-spacing="0em"><tspan x="110.5" y="697.904">Fast learning</tspan></text>
</g>
<g id="TextRow_12">
<g id="misc/dot_04_l_12">
<path id="Icon_16" d="M100.5 709.646C99.3494 709.646 98.4167 708.713 98.4167 707.563C98.4167 706.412 99.3494 705.479 100.5 705.479C101.651 705.479 102.583 706.412 102.583 707.563C102.583 708.713 101.651 709.646 100.5 709.646Z" fill="#95AAFB"/>
</g>
<text id="Text_23" fill="#232339" xml:space="preserve" style="white-space: pre" font-family="DM Sans" font-size="8" letter-spacing="0em"><tspan x="110.5" y="710.291">Aesthetic sense</tspan></text>
</g>
</g>
</g>
</g>
</g>
</g>
</g>
</g>
<defs>
<clipPath id="clip0_374_11599">
<rect width="169" height="0.596591" fill="white" transform="translate(95.5 66)"/>
</clipPath>
<clipPath id="clip1_374_11599">
<rect x="95.5" y="79.5966" width="19.0909" height="19.0909" rx="9.54545" fill="white"/>
</clipPath>
<clipPath id="clip2_374_11599">
<rect x="95.5" y="114.301" width="19.0909" height="19.0909" rx="9.54545" fill="white"/>
</clipPath>
<clipPath id="clip3_374_11599">
<rect x="95.5" y="149.653" width="19.0909" height="19.0909" rx="9.54545" fill="white"/>
</clipPath>
<clipPath id="clip4_374_11599">
<rect x="95.5" y="191.466" width="19.0909" height="19.0909" rx="9.54545" fill="white"/>
</clipPath>
<clipPath id="clip5_374_11599">
<rect width="11.9318" height="11.9318" fill="white" transform="translate(99.0795 195.045)"/>
</clipPath>
<clipPath id="clip6_374_11599">
<rect width="169" height="0.596591" fill="white" transform="translate(95.5 231.312)"/>
</clipPath>
<clipPath id="clip7_374_11599">
<rect x="95.5" y="267.875" width="19.0909" height="19.0909" rx="9.54545" fill="white"/>
</clipPath>
<clipPath id="clip8_374_11599">
<rect x="95.5" y="303.08" width="19.0909" height="19.0909" rx="9.54545" fill="white"/>
</clipPath>
<clipPath id="clip9_374_11599">
<rect width="169" height="0.596591" fill="white" transform="translate(95.5 336.318)"/>
</clipPath>
<clipPath id="clip10_374_11599">
<rect width="26.25" height="19.0909" fill="white" transform="translate(95.5 375.881)"/>
</clipPath>
<clipPath id="clip11_374_11599">
<rect x="95.5" y="375.881" width="26.25" height="19.0909" rx="2.38636" fill="white"/>
</clipPath>
<clipPath id="clip12_374_11599">
<rect width="26.25" height="19.0909" fill="white" transform="translate(95.5 415.585)"/>
</clipPath>
<clipPath id="clip13_374_11599">
<rect x="95.5" y="415.585" width="26.25" height="19.0909" rx="2.38636" fill="white"/>
</clipPath>
<clipPath id="clip14_374_11599">
<rect width="169" height="0.596591" fill="white" transform="translate(95.5 452.324)"/>
</clipPath>
<clipPath id="clip15_374_11599">
<rect width="169" height="0.596591" fill="white" transform="translate(95.5 604.716)"/>
</clipPath>
</defs>
</svg>
