<svg width="387" height="752" viewBox="0 0 387 752" fill="none" xmlns="http://www.w3.org/2000/svg">
<g id="Aside">
<rect width="387" height="751.949" fill="#F7F9FC"/>
<g id="Aside_2">
<rect width="209" height="751.949" transform="translate(89)" fill="#F7F9FC"/>
<g id="Main">
<g id="Container">
<g id="Header">
<g id="Header_2">
<g id="Text">
<text id="Name" fill="#2E2E48" xml:space="preserve" style="white-space: pre" font-family="Outfit" font-size="20" font-weight="bold" letter-spacing="-0.03em"><tspan x="109.977" y="37.4">Krzysztof Piskorski</tspan></text>
<text id="Age: 22" fill="#ACB1C3" xml:space="preserve" style="white-space: pre" font-family="Outfit" font-size="9" letter-spacing="0.02em"><tspan x="177.5" y="50.33">Age: 22</tspan></text>
</g>
</g>
</g>
<g id="Divider" clip-path="url(#clip0_374_11599)">
<rect id="divider" x="109.149" y="66.1491" width="168.702" height="0.298295" stroke="#E2E6EE" stroke-width="0.298295" stroke-linejoin="round"/>
</g>
<g id="Infos">
<g id="EmailRow">
<g id="Featured icon">
<g clip-path="url(#clip1_374_11599)">
<rect id="Rectangle" x="109" y="79.5966" width="19.0909" height="19.0909" rx="9.54545" fill="#E2E6EE"/>
<g id="basic/mail">
<path id="Icon" d="M122.523 93.1193H114.568C114.019 93.1193 113.574 92.6741 113.574 92.125V86.1158C113.597 85.5836 114.035 85.1642 114.568 85.1647H122.523C123.072 85.1647 123.517 85.6099 123.517 86.1591V92.125C123.517 92.6741 123.072 93.1193 122.523 93.1193ZM114.568 87.0877V92.125H122.523V87.0877L118.545 89.7386L114.568 87.0877ZM114.966 86.1591L118.545 88.5454L122.125 86.1591H114.966Z" fill="#79819A"/>
</g>
</g>
</g>
<g id="Text_2">
<text id="Subtitle" fill="#79819A" xml:space="preserve" style="white-space: pre" font-family="DM Sans" font-size="7.5" letter-spacing="0.01em"><tspan x="137.636" y="86.1541">Email</tspan></text>
<text id="Subtitle_2" fill="#47516B" xml:space="preserve" style="white-space: pre" font-family="DM Sans" font-size="8.5" font-weight="500" letter-spacing="0em"><tspan x="137.636" y="97.8814">k.n.piskorski@gmail.com</tspan></text>
</g>
</g>
<g id="PhoneRow">
<g id="Featured icon_2">
<g clip-path="url(#clip2_374_11599)">
<rect id="Rectangle_2" x="109" y="114.301" width="19.0909" height="19.0909" rx="9.54545" fill="#E2E6EE"/>
<g id="basic/phone">
<path id="Icon_2" d="M122.024 127.824C117.783 127.83 114.564 124.572 114.568 120.368C114.568 120.093 114.791 119.869 115.065 119.869H116.377C116.624 119.869 116.833 120.05 116.869 120.294C116.956 120.878 117.126 121.447 117.374 121.983L117.425 122.093C117.496 122.246 117.448 122.428 117.311 122.527C116.904 122.817 116.749 123.401 117.066 123.857C117.463 124.429 117.964 124.929 118.536 125.326C118.991 125.643 119.575 125.488 119.866 125.081C119.964 124.944 120.146 124.896 120.3 124.967L120.409 125.017C120.945 125.266 121.514 125.436 122.098 125.522C122.342 125.559 122.523 125.768 122.523 126.014V127.327C122.523 127.601 122.3 127.824 122.025 127.824L122.024 127.824Z" fill="#79819A"/>
</g>
</g>
</g>
<g id="Text_3">
<text id="Subtitle_3" fill="#79819A" xml:space="preserve" style="white-space: pre" font-family="DM Sans" font-size="7.5" letter-spacing="0.01em"><tspan x="137.636" y="120.859">Phone</tspan></text>
<text id="Subtitle_4" fill="#47516B" xml:space="preserve" style="white-space: pre" font-family="DM Sans" font-size="8.5" font-weight="500" letter-spacing="0em"><tspan x="137.636" y="132.586">+48666723089</tspan></text>
</g>
</g>
<g id="Row">
<g id="Featured icon_3">
<g clip-path="url(#clip3_374_11599)">
<rect id="Rectangle_3" x="109" y="149.653" width="19.0909" height="19.0909" rx="9.54545" fill="#E2E6EE"/>
<g id="basic/location">
<path id="Icon_3" d="M118.545 163.673C117.917 163.138 117.335 162.55 116.805 161.918C116.01 160.968 115.065 159.553 115.065 158.205C115.065 156.796 115.913 155.527 117.214 154.988C118.515 154.449 120.012 154.747 121.007 155.743C121.662 156.395 122.028 157.281 122.026 158.205C122.026 159.553 121.081 160.968 120.285 161.918C119.755 162.55 119.173 163.138 118.545 163.673ZM118.545 156.713C118.013 156.713 117.52 156.997 117.254 157.459C116.987 157.92 116.987 158.489 117.254 158.95C117.52 159.412 118.013 159.696 118.545 159.696C119.369 159.696 120.037 159.028 120.037 158.205C120.037 157.381 119.369 156.713 118.545 156.713Z" fill="#79819A"/>
</g>
</g>
</g>
<g id="Text_4">
<text id="Subtitle_5" fill="#79819A" xml:space="preserve" style="white-space: pre" font-family="DM Sans" font-size="7.5" letter-spacing="0.01em"><tspan x="137.636" y="155.563">Address</tspan></text>
<text id="Subtitle_6" fill="#47516B" xml:space="preserve" style="white-space: pre" font-family="DM Sans" font-size="8.5" font-weight="500" letter-spacing="0em"><tspan x="137.636" y="167.29">Wroc&#x142;aw, Kr&#xf3;lewiecka</tspan></text>
</g>
</g>
<g id="Row_2">
<g id="Featured icon_4">
<g clip-path="url(#clip4_374_11599)">
<rect id="Rectangle_4" x="109" y="191.466" width="19.0909" height="19.0909" rx="9.54545" fill="#E2E6EE"/>
<g id="basic/location_2" clip-path="url(#clip5_374_11599)">
<path id="Vector" d="M118.545 196.239L112.579 199.42L114.749 200.576V203.758L118.545 205.784L122.342 203.758V200.576L123.427 199.998V203.663H124.511V199.42L118.545 196.239ZM122.244 199.42L118.545 201.393L114.847 199.42L118.545 197.448L122.244 199.42ZM121.257 203.127L118.545 204.575L115.834 203.127V201.155L118.545 202.602L121.257 201.155V203.127Z" fill="#79819A"/>
</g>
</g>
</g>
<g id="Text_5">
<text id="Subtitle_7" fill="#79819A" xml:space="preserve" style="white-space: pre" font-family="DM Sans" font-size="7.5" letter-spacing="0.01em"><tspan x="137.636" y="190.268">Education</tspan></text>
<g id="Frame 1">
<text id="Subtitle_8" fill="#47516B" xml:space="preserve" style="white-space: pre" font-family="DM Sans" font-size="8.5" font-weight="500" letter-spacing="0em"><tspan x="137.636" y="201.995">IT technician</tspan></text>
<text id="Subtitle_9" fill="#95AAFB" xml:space="preserve" style="white-space: pre" font-family="DM Sans" font-size="7.5" letter-spacing="0.01em"><tspan x="137.636" y="211.154">ZSE Gniezno</tspan></text>
</g>
</g>
</g>
</g>
<g id="Divider_2" clip-path="url(#clip6_374_11599)">
<rect id="divider_2" x="109.149" y="231.462" width="168.702" height="0.298295" stroke="#E2E6EE" stroke-width="0.298295" stroke-linejoin="round"/>
</g>
<g id="Socials">
<text id="Subtitle_10" fill="#79819A" xml:space="preserve" style="white-space: pre" font-family="DM Sans" font-size="7.5" letter-spacing="0.01em"><tspan x="109" y="251.467">Socials</tspan></text>
<g id="GithubRow">
<g id="Social icon">
<g clip-path="url(#clip7_374_11599)">
<rect x="109" y="267.875" width="19.0909" height="19.0909" rx="9.54545" fill="white"/>
<g id="GitHub">
<path id="Vector_2" d="M117.452 266.98C112.878 267.477 109.199 271.156 108.702 275.631C108.205 280.304 110.889 284.48 114.966 286.071C115.264 286.17 115.563 285.972 115.563 285.574V283.983C115.563 283.983 115.165 284.082 114.668 284.082C113.276 284.082 112.679 282.889 112.58 282.193C112.48 281.795 112.281 281.497 111.983 281.199C111.685 281.099 111.585 281.099 111.585 281C111.585 280.801 111.884 280.801 111.983 280.801C112.58 280.801 113.077 281.497 113.276 281.795C113.773 282.591 114.369 282.79 114.668 282.79C115.065 282.79 115.364 282.69 115.563 282.591C115.662 281.895 115.96 281.199 116.557 280.801C114.27 280.304 112.58 279.011 112.58 276.824C112.58 275.73 113.077 274.636 113.773 273.841C113.673 273.642 113.574 273.145 113.574 272.449C113.574 272.051 113.574 271.455 113.872 270.858C113.872 270.858 115.264 270.858 116.656 272.151C117.153 271.952 117.849 271.852 118.545 271.852C119.241 271.852 119.938 271.952 120.534 272.151C121.827 270.858 123.318 270.858 123.318 270.858C123.517 271.455 123.517 272.051 123.517 272.449C123.517 273.244 123.418 273.642 123.318 273.841C124.014 274.636 124.511 275.631 124.511 276.824C124.511 279.011 122.821 280.304 120.534 280.801C121.131 281.298 121.528 282.193 121.528 283.088V285.673C121.528 285.972 121.827 286.27 122.224 286.17C125.903 284.679 128.489 281.099 128.489 276.923C128.489 270.957 123.418 266.284 117.452 266.98Z" fill="black"/>
</g>
</g>
</g>
<g id="Text_6">
<text id="Subtitle_11" fill="#79819A" xml:space="preserve" style="white-space: pre" font-family="DM Sans" font-size="7.5" letter-spacing="0.01em"><tspan x="137.636" y="273.785">GitHub</tspan></text>
<text id="Subtitle_12" fill="#47516B" xml:space="preserve" style="white-space: pre" font-family="DM Sans" font-size="8" font-weight="500" letter-spacing="0em"><tspan x="137.636" y="285.342">@atkki</tspan></text>
</g>
</g>
<g id="ResumeRow">
<g id="Featured icon_5">
<g clip-path="url(#clip8_374_11599)">
<rect id="Rectangle_5" x="109" y="303.08" width="19.0909" height="19.0909" rx="9.54545" fill="#95AAFB"/>
<g id="basic/link_02">
<path id="Icon_4" d="M116.788 316.868C115.783 316.868 114.876 316.263 114.492 315.334C114.107 314.405 114.319 313.336 115.03 312.625L116.085 311.57L116.788 312.273L115.734 313.327C115.357 313.704 115.21 314.254 115.347 314.768C115.485 315.283 115.887 315.685 116.402 315.823C116.917 315.961 117.466 315.814 117.843 315.437L118.897 314.382L119.6 315.086L118.546 316.14C118.081 316.608 117.448 316.87 116.788 316.868ZM117.139 314.734L116.436 314.031L119.952 310.516L120.655 311.219L117.14 314.733L117.139 314.734ZM121.007 313.679L120.303 312.976L121.358 311.922C121.74 311.546 121.891 310.995 121.754 310.477C121.617 309.959 121.212 309.554 120.694 309.417C120.176 309.28 119.625 309.431 119.249 309.813L118.194 310.867L117.491 310.164L118.546 309.109C119.518 308.146 121.086 308.149 122.054 309.117C123.021 310.085 123.025 311.653 122.061 312.625L121.007 313.679V313.679Z" fill="#F8F2FC"/>
</g>
</g>
</g>
<g id="Text_7">
<text id="Subtitle_13" fill="#79819A" xml:space="preserve" style="white-space: pre" font-family="DM Sans" font-size="7.5" letter-spacing="0.01em"><tspan x="137.636" y="308.989">Resume with previews</tspan></text>
<text id="Subtitle_14" fill="#47516B" xml:space="preserve" style="white-space: pre" font-family="DM Sans" font-size="8.5" font-weight="500" letter-spacing="0em"><tspan x="137.636" y="321.217">https://resume.kki.ovh</tspan></text>
</g>
</g>
</g>
<g id="Divider_3" clip-path="url(#clip9_374_11599)">
<rect id="divider_3" x="109.149" y="336.467" width="168.702" height="0.298295" stroke="#E2E6EE" stroke-width="0.298295" stroke-linejoin="round"/>
</g>
<g id="Languagues">
<text id="Subtitle_15" fill="#79819A" xml:space="preserve" style="white-space: pre" font-family="DM Sans" font-size="7.5" letter-spacing="0.01em"><tspan x="109" y="356.472">Languages</tspan></text>
<g id="Row_3">
<g id=" poland" clip-path="url(#clip10_374_11599)">
<g id="artwork">
<g clip-path="url(#clip11_374_11599)">
<rect x="109" y="372.881" width="26.25" height="19.0909" rx="2.38636" fill="#AF010D"/>
<path id="vector" fill-rule="evenodd" clip-rule="evenodd" d="M109 372.881H135.25V382.426H109V372.881Z" fill="#F8F2FC"/>
</g>
</g>
</g>
<g id="Text_8">
<text id="Subtitle_16" fill="#47516B" xml:space="preserve" style="white-space: pre" font-family="DM Sans" font-size="8.5" font-weight="500" letter-spacing="0em"><tspan x="144.795" y="380.131">Polish</tspan></text>
<text id="Subtitle_17" fill="#79819A" xml:space="preserve" style="white-space: pre" font-family="DM Sans" font-size="7.5" letter-spacing="0.01em"><tspan x="144.795" y="391.177">Native</tspan></text>
</g>
</g>
<g id="Row_4">
<g id=" united-kingdom" clip-path="url(#clip12_374_11599)">
<g id="artwork_2">
<g clip-path="url(#clip13_374_11599)">
<rect x="109" y="411.585" width="26.25" height="19.0909" rx="2.38636" fill="#1A47B8"/>
<path id="vector_2" fill-rule="evenodd" clip-rule="evenodd" d="M111.792 411.585H109V414.767L132.442 430.676L135.25 430.676V427.494L111.792 411.585Z" fill="white"/>
<path id="vector_3" d="M109.931 411.585L135.25 428.812V430.676H134.34L109 413.431V411.585H109.931Z" fill="#F93939"/>
<path id="vector_4" fill-rule="evenodd" clip-rule="evenodd" d="M132.75 411.585H135.25V414.767C135.25 414.767 119.012 425.366 111.5 430.676H109V427.494L132.75 411.585Z" fill="white"/>
<path id="vector_5" d="M135.25 411.585H134.402L109 428.827V430.676H109.931L135.25 413.445V411.585Z" fill="#F93939"/>
<path id="vector_6" fill-rule="evenodd" clip-rule="evenodd" d="M118.546 411.585H125.725V417.474H135.25V424.784H125.725V430.676H118.546V424.784H109V417.474H118.546V411.585Z" fill="white"/>
<path id="vector_7" fill-rule="evenodd" clip-rule="evenodd" d="M120.053 411.585H124.197V418.928H135.25V423.333H124.197V430.676H120.053V423.333H109V418.928H120.053V411.585Z" fill="#F93939"/>
</g>
</g>
</g>
<g id="Text_9">
<text id="Subtitle_18" fill="#47516B" xml:space="preserve" style="white-space: pre" font-family="DM Sans" font-size="8.5" font-weight="500" letter-spacing="0em"><tspan x="144.795" y="414.836">English</tspan></text>
<text id="Subtitle_19" fill="#79819A" xml:space="preserve" style="white-space: pre" font-family="DM Sans" font-size="7.5" letter-spacing="0.01em"><tspan x="144.795" y="425.881">C1: reading&#x2028;</tspan><tspan x="144.795" y="433.881">B1: speaking, writing</tspan></text>
</g>
</g>
</g>
<g id="Divider_4" clip-path="url(#clip14_374_11599)">
<rect id="divider_4" x="109.149" y="448.473" width="168.702" height="0.298295" stroke="#E2E6EE" stroke-width="0.298295" stroke-linejoin="round"/>
</g>
<g id="Skillset">
<text id="Subtitle_20" fill="#79819A" xml:space="preserve" style="white-space: pre" font-family="DM Sans" font-size="7.5" letter-spacing="0.01em"><tspan x="109" y="468.478">Technical skills</tspan></text>
<g id="Row_5">
<g id="Text_10">
<g id="TextRow">
<g id="misc/dot_04_l">
<path id="Icon_5" d="M114 491.822C112.849 491.822 111.917 490.889 111.917 489.739C111.917 488.588 112.849 487.655 114 487.655C115.151 487.655 116.083 488.588 116.083 489.739C116.083 490.889 115.151 491.822 114 491.822Z" fill="#95AAFB"/>
</g>
<text id="Text_11" fill="#232339" xml:space="preserve" style="white-space: pre" font-family="DM Sans" font-size="8.5" letter-spacing="0em"><tspan x="124" y="492.637">C++14</tspan></text>
</g>
<g id="TextRow_2">
<g id="misc/dot_04_l_2">
<path id="Icon_6" d="M114 505.208C112.849 505.208 111.917 504.276 111.917 503.125C111.917 501.974 112.849 501.042 114 501.042C115.151 501.042 116.083 501.974 116.083 503.125C116.083 504.276 115.151 505.208 114 505.208Z" fill="#95AAFB"/>
</g>
<text id="Text_12" fill="#232339" xml:space="preserve" style="white-space: pre" font-family="DM Sans" font-size="8.5" letter-spacing="0em"><tspan x="124" y="506.023">Scripting: Lua, JS (ES6), TypeScript</tspan></text>
</g>
<g id="TextRow_3">
<g id="misc/dot_04_l_3">
<path id="Icon_7" d="M114 518.595C112.849 518.595 111.917 517.662 111.917 516.511C111.917 515.361 112.849 514.428 114 514.428C115.151 514.428 116.083 515.361 116.083 516.511C116.083 517.662 115.151 518.595 114 518.595Z" fill="#95AAFB"/>
</g>
<text id="Text_13" fill="#232339" xml:space="preserve" style="white-space: pre" font-family="DM Sans" font-size="8.5" letter-spacing="0em"><tspan x="124" y="519.41">Unreal Engine 5</tspan></text>
</g>
<g id="TextRow_4">
<g id="misc/dot_04_l_4">
<path id="Icon_8" d="M114 531.981C112.849 531.981 111.917 531.048 111.917 529.898C111.917 528.747 112.849 527.814 114 527.814C115.151 527.814 116.083 528.747 116.083 529.898C116.083 531.048 115.151 531.981 114 531.981Z" fill="#95AAFB"/>
</g>
<text id="Text_14" fill="#232339" xml:space="preserve" style="white-space: pre" font-family="DM Sans" font-size="8.5" letter-spacing="0em"><tspan x="124" y="532.796">CI / CD, Linux knowledge</tspan></text>
</g>
<g id="TextRow_5">
<g id="misc/dot_04_l_5">
<path id="Icon_9" d="M114 545.367C112.849 545.367 111.917 544.435 111.917 543.284C111.917 542.133 112.849 541.201 114 541.201C115.151 541.201 116.083 542.133 116.083 543.284C116.083 544.435 115.151 545.367 114 545.367Z" fill="#95AAFB"/>
</g>
<text id="Text_15" fill="#232339" xml:space="preserve" style="white-space: pre" font-family="DM Sans" font-size="8.5" letter-spacing="0em"><tspan x="124" y="546.183">Version control, Git</tspan></text>
</g>
<g id="TextRow_6">
<g id="misc/dot_04_l_6">
<path id="Icon_10" d="M114 558.754C112.849 558.754 111.917 557.821 111.917 556.67C111.917 555.52 112.849 554.587 114 554.587C115.151 554.587 116.083 555.52 116.083 556.67C116.083 557.821 115.151 558.754 114 558.754Z" fill="#95AAFB"/>
</g>
<text id="Text_16" fill="#232339" xml:space="preserve" style="white-space: pre" font-family="DM Sans" font-size="8.5" letter-spacing="0em"><tspan x="124" y="559.569">Audio engineering, music production</tspan></text>
</g>
</g>
<g id="MusicPreview">
<rect x="109.5" y="572.216" width="66" height="19" rx="7.5" fill="#F7F9FC"/>
<g id="Content">
<g id="Icon / small">
<g id="Perm media">
<path id="Vector_3" d="M125.5 577.216H119.5C118.95 577.216 118.5 577.621 118.5 578.116V583.516C118.5 584.011 118.95 584.416 119.5 584.416H125.5C126.05 584.416 126.5 584.011 126.5 583.516V578.116C126.5 577.621 126.05 577.216 125.5 577.216ZM125.5 583.516H119.5V578.116H125.5V583.516ZM121.75 583.066C122.44 583.066 123 582.562 123 581.941V579.466H124.5V578.566H122.5V581.045C122.29 580.901 122.035 580.816 121.75 580.816C121.06 580.816 120.5 581.32 120.5 581.941C120.5 582.562 121.06 583.066 121.75 583.066ZM117.5 579.016H116.5V585.316C116.5 585.811 116.95 586.216 117.5 586.216H124.5V585.316H117.5V579.016Z" fill="#9251F7"/>
</g>
</g>
<text id="PREVIEW" fill="#9251F7" xml:space="preserve" style="white-space: pre" font-family="DM Sans" font-size="8.5" font-weight="500" letter-spacing="0em"><tspan x="131.875" y="584.614">PREVIEW</tspan></text>
</g>
<rect x="109.5" y="572.216" width="66" height="19" rx="7.5" stroke="#9251F7"/>
</g>
</g>
</g>
<g id="Divider_5" clip-path="url(#clip15_374_11599)">
<rect id="divider_5" x="109.149" y="604.865" width="168.702" height="0.298295" stroke="#E2E6EE" stroke-width="0.298295" stroke-linejoin="round"/>
</g>
<g id="Soft skills">
<text id="Subtitle_21" fill="#79819A" xml:space="preserve" style="white-space: pre" font-family="DM Sans" font-size="7.5" letter-spacing="0.01em"><tspan x="109" y="624.87">Soft skills</tspan></text>
<g id="Row_6">
<g id="Text_17">
<g id="TextRow_7">
<g id="misc/dot_04_l_7">
<path id="Icon_11" d="M114 648.214C112.849 648.214 111.917 647.281 111.917 646.131C111.917 644.98 112.849 644.047 114 644.047C115.151 644.047 116.083 644.98 116.083 646.131C116.083 647.281 115.151 648.214 114 648.214Z" fill="#95AAFB"/>
</g>
<text id="Text_18" fill="#232339" xml:space="preserve" style="white-space: pre" font-family="DM Sans" font-size="8.5" letter-spacing="0em"><tspan x="124" y="649.029">Team player</tspan></text>
</g>
<g id="TextRow_8">
<g id="misc/dot_04_l_8">
<path id="Icon_12" d="M114 661.6C112.849 661.6 111.917 660.668 111.917 659.517C111.917 658.366 112.849 657.434 114 657.434C115.151 657.434 116.083 658.366 116.083 659.517C116.083 660.668 115.151 661.6 114 661.6Z" fill="#95AAFB"/>
</g>
<text id="Text_19" fill="#232339" xml:space="preserve" style="white-space: pre" font-family="DM Sans" font-size="8.5" letter-spacing="0em"><tspan x="124" y="662.416">Responsible</tspan></text>
</g>
<g id="TextRow_9">
<g id="misc/dot_04_l_9">
<path id="Icon_13" d="M114 674.987C112.849 674.987 111.917 674.054 111.917 672.903C111.917 671.753 112.849 670.82 114 670.82C115.151 670.82 116.083 671.753 116.083 672.903C116.083 674.054 115.151 674.987 114 674.987Z" fill="#95AAFB"/>
</g>
<text id="Text_20" fill="#232339" xml:space="preserve" style="white-space: pre" font-family="DM Sans" font-size="8.5" letter-spacing="0em"><tspan x="124" y="675.802">Resistant to stress</tspan></text>
</g>
<g id="TextRow_10">
<g id="misc/dot_04_l_10">
<path id="Icon_14" d="M114 688.373C112.849 688.373 111.917 687.44 111.917 686.29C111.917 685.139 112.849 684.206 114 684.206C115.151 684.206 116.083 685.139 116.083 686.29C116.083 687.44 115.151 688.373 114 688.373Z" fill="#95AAFB"/>
</g>
<text id="Text_21" fill="#232339" xml:space="preserve" style="white-space: pre" font-family="DM Sans" font-size="8.5" letter-spacing="0em"><tspan x="124" y="689.188">Creative</tspan></text>
</g>
<g id="TextRow_11">
<g id="misc/dot_04_l_11">
<path id="Icon_15" d="M114 701.759C112.849 701.759 111.917 700.827 111.917 699.676C111.917 698.526 112.849 697.593 114 697.593C115.151 697.593 116.083 698.526 116.083 699.676C116.083 700.827 115.151 701.759 114 701.759Z" fill="#95AAFB"/>
</g>
<text id="Text_22" fill="#232339" xml:space="preserve" style="white-space: pre" font-family="DM Sans" font-size="8.5" letter-spacing="0em"><tspan x="124" y="702.575">Fast learning</tspan></text>
</g>
<g id="TextRow_12">
<g id="misc/dot_04_l_12">
<path id="Icon_16" d="M114 715.146C112.849 715.146 111.917 714.213 111.917 713.062C111.917 711.912 112.849 710.979 114 710.979C115.151 710.979 116.083 711.912 116.083 713.062C116.083 714.213 115.151 715.146 114 715.146Z" fill="#95AAFB"/>
</g>
<text id="Text_23" fill="#232339" xml:space="preserve" style="white-space: pre" font-family="DM Sans" font-size="8.5" letter-spacing="0em"><tspan x="124" y="715.961">Aesthetic sense</tspan></text>
</g>
<g id="TextRow_13">
<g id="misc/dot_04_l_13">
<path id="Icon_17" d="M114 728.532C112.849 728.532 111.917 727.599 111.917 726.449C111.917 725.298 112.849 724.366 114 724.366C115.151 724.366 116.083 725.298 116.083 726.449C116.083 727.599 115.151 728.532 114 728.532Z" fill="#95AAFB"/>
</g>
<text id="Text_24" fill="#232339" xml:space="preserve" style="white-space: pre" font-family="DM Sans" font-size="8.5" letter-spacing="0em"><tspan x="124" y="729.347">Emotionally intelligent</tspan></text>
</g>
</g>
</g>
</g>
</g>
</g>
</g>
</g>
<defs>
<clipPath id="clip0_374_11599">
<rect width="169" height="0.596591" fill="white" transform="translate(109 66)"/>
</clipPath>
<clipPath id="clip1_374_11599">
<rect x="109" y="79.5966" width="19.0909" height="19.0909" rx="9.54545" fill="white"/>
</clipPath>
<clipPath id="clip2_374_11599">
<rect x="109" y="114.301" width="19.0909" height="19.0909" rx="9.54545" fill="white"/>
</clipPath>
<clipPath id="clip3_374_11599">
<rect x="109" y="149.653" width="19.0909" height="19.0909" rx="9.54545" fill="white"/>
</clipPath>
<clipPath id="clip4_374_11599">
<rect x="109" y="191.466" width="19.0909" height="19.0909" rx="9.54545" fill="white"/>
</clipPath>
<clipPath id="clip5_374_11599">
<rect width="11.9318" height="11.9318" fill="white" transform="translate(112.58 195.045)"/>
</clipPath>
<clipPath id="clip6_374_11599">
<rect width="169" height="0.596591" fill="white" transform="translate(109 231.312)"/>
</clipPath>
<clipPath id="clip7_374_11599">
<rect x="109" y="267.875" width="19.0909" height="19.0909" rx="9.54545" fill="white"/>
</clipPath>
<clipPath id="clip8_374_11599">
<rect x="109" y="303.08" width="19.0909" height="19.0909" rx="9.54545" fill="white"/>
</clipPath>
<clipPath id="clip9_374_11599">
<rect width="169" height="0.596591" fill="white" transform="translate(109 336.318)"/>
</clipPath>
<clipPath id="clip10_374_11599">
<rect width="26.25" height="19.0909" fill="white" transform="translate(109 372.881)"/>
</clipPath>
<clipPath id="clip11_374_11599">
<rect x="109" y="372.881" width="26.25" height="19.0909" rx="2.38636" fill="white"/>
</clipPath>
<clipPath id="clip12_374_11599">
<rect width="26.25" height="19.0909" fill="white" transform="translate(109 411.585)"/>
</clipPath>
<clipPath id="clip13_374_11599">
<rect x="109" y="411.585" width="26.25" height="19.0909" rx="2.38636" fill="white"/>
</clipPath>
<clipPath id="clip14_374_11599">
<rect width="169" height="0.596591" fill="white" transform="translate(109 448.324)"/>
</clipPath>
<clipPath id="clip15_374_11599">
<rect width="169" height="0.596591" fill="white" transform="translate(109 604.716)"/>
</clipPath>
</defs>
</svg>
