<svg width="347" height="778" viewBox="0 0 347 778" fill="none" xmlns="http://www.w3.org/2000/svg">
<g id="Aside">
<rect width="347" height="777.949" fill="#F7F9FC"/>
<g id="Aside_2">
<rect width="209" height="777.949" transform="translate(69)" fill="#F7F9FC"/>
<g id="Main">
<g id="Container">
<g id="Header">
<g id="Header_2">
<g id="Text">
<text id="Name" fill="#2E2E48" xml:space="preserve" style="white-space: pre" font-family="Outfit" font-size="20" font-weight="bold" letter-spacing="-0.03em"><tspan x="89.9773" y="37.4">Krzysztof Piskorski</tspan></text>
<text id="Age: 22" fill="#ACB1C3" xml:space="preserve" style="white-space: pre" font-family="Outfit" font-size="9" letter-spacing="0.02em"><tspan x="157.5" y="50.33">Age: 22</tspan></text>
</g>
</g>
</g>
<g id="Divider" clip-path="url(#clip0_374_11599)">
<rect id="divider" x="89.1491" y="66.1491" width="168.702" height="0.298295" stroke="#E2E6EE" stroke-width="0.298295" stroke-linejoin="round"/>
</g>
<g id="Infos">
<g id="EmailRow">
<g id="Featured icon">
<g clip-path="url(#clip1_374_11599)">
<rect id="Rectangle" x="89" y="79.5966" width="19.0909" height="19.0909" rx="9.54545" fill="#E2E6EE"/>
<g id="basic/mail">
<path id="Icon" d="M102.523 93.1193H94.5681C94.019 93.1193 93.5738 92.6741 93.5738 92.125V86.1158C93.597 85.5836 94.0354 85.1642 94.5681 85.1647H102.523C103.072 85.1647 103.517 85.6099 103.517 86.1591V92.125C103.517 92.6741 103.072 93.1193 102.523 93.1193ZM94.5681 87.0877V92.125H102.523V87.0877L98.5454 89.7386L94.5681 87.0877ZM94.9659 86.1591L98.5454 88.5454L102.125 86.1591H94.9659Z" fill="#79819A"/>
</g>
</g>
</g>
<g id="Text_2">
<text id="Subtitle" fill="#79819A" xml:space="preserve" style="white-space: pre" font-family="DM Sans" font-size="7.5" letter-spacing="0.01em"><tspan x="117.636" y="86.1541">Email</tspan></text>
<text id="Subtitle_2" fill="#47516B" xml:space="preserve" style="white-space: pre" font-family="DM Sans" font-size="8.5" font-weight="500" letter-spacing="0em"><tspan x="117.636" y="97.8814">k.n.piskorski@gmail.com</tspan></text>
</g>
</g>
<g id="PhoneRow">
<g id="Featured icon_2">
<g clip-path="url(#clip2_374_11599)">
<rect id="Rectangle_2" x="89" y="114.301" width="19.0909" height="19.0909" rx="9.54545" fill="#E2E6EE"/>
<g id="basic/phone">
<path id="Icon_2" d="M102.024 127.824C97.7827 127.83 94.5636 124.572 94.5682 120.368C94.5682 120.093 94.7907 119.869 95.0653 119.869H96.3775C96.6239 119.869 96.8332 120.05 96.8693 120.294C96.9561 120.878 97.1261 121.447 97.3744 121.983L97.4254 122.093C97.4965 122.246 97.4483 122.428 97.3108 122.527C96.9044 122.817 96.7491 123.401 97.0657 123.857C97.463 124.429 97.9638 124.929 98.5356 125.326C98.9914 125.643 99.5754 125.488 99.8656 125.081C99.9639 124.944 100.146 124.896 100.3 124.967L100.409 125.017C100.945 125.266 101.514 125.436 102.098 125.522C102.342 125.559 102.523 125.768 102.523 126.014V127.327C102.523 127.601 102.3 127.824 102.025 127.824L102.024 127.824Z" fill="#79819A"/>
</g>
</g>
</g>
<g id="Text_3">
<text id="Subtitle_3" fill="#79819A" xml:space="preserve" style="white-space: pre" font-family="DM Sans" font-size="7.5" letter-spacing="0.01em"><tspan x="117.636" y="120.859">Phone</tspan></text>
<text id="Subtitle_4" fill="#47516B" xml:space="preserve" style="white-space: pre" font-family="DM Sans" font-size="8.5" font-weight="500" letter-spacing="0em"><tspan x="117.636" y="132.586">+48666723089</tspan></text>
</g>
</g>
<g id="Row">
<g id="Featured icon_3">
<g clip-path="url(#clip3_374_11599)">
<rect id="Rectangle_3" x="89" y="149.653" width="19.0909" height="19.0909" rx="9.54545" fill="#E2E6EE"/>
<g id="basic/location">
<path id="Icon_3" d="M98.5454 163.673C97.9175 163.138 97.3354 162.55 96.8054 161.918C96.0099 160.968 95.0653 159.553 95.0653 158.205C95.0646 156.796 95.9126 155.527 97.2136 154.988C98.5145 154.449 100.012 154.747 101.007 155.743C101.662 156.395 102.028 157.281 102.026 158.205C102.026 159.553 101.081 160.968 100.285 161.918C99.7554 162.55 99.1734 163.138 98.5454 163.673ZM98.5454 156.713C98.0126 156.713 97.5202 156.997 97.2538 157.459C96.9873 157.92 96.9873 158.489 97.2538 158.95C97.5202 159.412 98.0126 159.696 98.5454 159.696C99.3691 159.696 100.037 159.028 100.037 158.205C100.037 157.381 99.3691 156.713 98.5454 156.713Z" fill="#79819A"/>
</g>
</g>
</g>
<g id="Text_4">
<text id="Subtitle_5" fill="#79819A" xml:space="preserve" style="white-space: pre" font-family="DM Sans" font-size="7.5" letter-spacing="0.01em"><tspan x="117.636" y="155.563">Address</tspan></text>
<text id="Subtitle_6" fill="#47516B" xml:space="preserve" style="white-space: pre" font-family="DM Sans" font-size="8.5" font-weight="500" letter-spacing="0em"><tspan x="117.636" y="167.29">Wroc&#x142;aw, Kr&#xf3;lewiecka</tspan></text>
</g>
</g>
<g id="Row_2">
<g id="Featured icon_4">
<g clip-path="url(#clip4_374_11599)">
<rect id="Rectangle_4" x="89" y="191.466" width="19.0909" height="19.0909" rx="9.54545" fill="#E2E6EE"/>
<g id="basic/location_2" clip-path="url(#clip5_374_11599)">
<path id="Vector" d="M98.5454 196.239L92.5795 199.42L94.7489 200.576V203.758L98.5454 205.784L102.342 203.758V200.576L103.427 199.998V203.663H104.511V199.42L98.5454 196.239ZM102.244 199.42L98.5454 201.393L94.8465 199.42L98.5454 197.448L102.244 199.42ZM101.257 203.127L98.5454 204.575L95.8336 203.127V201.155L98.5454 202.602L101.257 201.155V203.127Z" fill="#79819A"/>
</g>
</g>
</g>
<g id="Text_5">
<text id="Subtitle_7" fill="#79819A" xml:space="preserve" style="white-space: pre" font-family="DM Sans" font-size="7.5" letter-spacing="0.01em"><tspan x="117.636" y="190.268">Education</tspan></text>
<g id="Frame 1">
<text id="Subtitle_8" fill="#47516B" xml:space="preserve" style="white-space: pre" font-family="DM Sans" font-size="8.5" font-weight="500" letter-spacing="0em"><tspan x="117.636" y="201.995">IT technician</tspan></text>
<text id="Subtitle_9" fill="#95AAFB" xml:space="preserve" style="white-space: pre" font-family="DM Sans" font-size="7.5" letter-spacing="0.01em"><tspan x="117.636" y="211.154">ZSE Gniezno</tspan></text>
</g>
</g>
</g>
</g>
<g id="Divider_2" clip-path="url(#clip6_374_11599)">
<rect id="divider_2" x="89.1491" y="231.462" width="168.702" height="0.298295" stroke="#E2E6EE" stroke-width="0.298295" stroke-linejoin="round"/>
</g>
<g id="Socials">
<text id="Subtitle_10" fill="#79819A" xml:space="preserve" style="white-space: pre" font-family="DM Sans" font-size="7.5" letter-spacing="0.01em"><tspan x="89" y="251.467">Socials</tspan></text>
<g id="GithubRow">
<g id="Social icon">
<g clip-path="url(#clip7_374_11599)">
<rect x="89" y="267.875" width="19.0909" height="19.0909" rx="9.54545" fill="white"/>
<g id="GitHub">
<path id="Vector_2" d="M97.4517 266.98C92.8778 267.477 89.1989 271.156 88.7017 275.631C88.2045 280.304 90.8892 284.48 94.9659 286.071C95.2642 286.17 95.5625 285.972 95.5625 285.574V283.983C95.5625 283.983 95.1648 284.082 94.6676 284.082C93.2756 284.082 92.679 282.889 92.5795 282.193C92.4801 281.795 92.2813 281.497 91.983 281.199C91.6847 281.099 91.5852 281.099 91.5852 281C91.5852 280.801 91.8835 280.801 91.983 280.801C92.5795 280.801 93.0767 281.497 93.2756 281.795C93.7727 282.591 94.3693 282.79 94.6676 282.79C95.0653 282.79 95.3636 282.69 95.5625 282.591C95.6619 281.895 95.9602 281.199 96.5568 280.801C94.2699 280.304 92.5795 279.011 92.5795 276.824C92.5795 275.73 93.0767 274.636 93.7727 273.841C93.6733 273.642 93.5739 273.145 93.5739 272.449C93.5739 272.051 93.5739 271.455 93.8722 270.858C93.8722 270.858 95.2642 270.858 96.6563 272.151C97.1534 271.952 97.8494 271.852 98.5455 271.852C99.2415 271.852 99.9375 271.952 100.534 272.151C101.827 270.858 103.318 270.858 103.318 270.858C103.517 271.455 103.517 272.051 103.517 272.449C103.517 273.244 103.418 273.642 103.318 273.841C104.014 274.636 104.511 275.631 104.511 276.824C104.511 279.011 102.821 280.304 100.534 280.801C101.131 281.298 101.528 282.193 101.528 283.088V285.673C101.528 285.972 101.827 286.27 102.224 286.17C105.903 284.679 108.489 281.099 108.489 276.923C108.489 270.957 103.418 266.284 97.4517 266.98Z" fill="black"/>
</g>
</g>
</g>
<g id="Text_6">
<text id="Subtitle_11" fill="#79819A" xml:space="preserve" style="white-space: pre" font-family="DM Sans" font-size="7.5" letter-spacing="0.01em"><tspan x="117.636" y="273.785">GitHub</tspan></text>
<text id="Subtitle_12" fill="#47516B" xml:space="preserve" style="white-space: pre" font-family="DM Sans" font-size="8" font-weight="500" letter-spacing="0em"><tspan x="117.636" y="285.342">@atkki</tspan></text>
</g>
</g>
<g id="ResumeRow">
<g id="Featured icon_5">
<g clip-path="url(#clip8_374_11599)">
<rect id="Rectangle_5" x="89" y="303.08" width="19.0909" height="19.0909" rx="9.54545" fill="#95AAFB"/>
<g id="basic/link_02">
<path id="Icon_4" d="M96.788 316.868C95.7827 316.868 94.8763 316.263 94.4915 315.334C94.1067 314.405 94.3193 313.336 95.03 312.625L96.085 311.57L96.788 312.273L95.7335 313.327C95.3567 313.704 95.2095 314.254 95.3475 314.768C95.4854 315.283 95.8874 315.685 96.4022 315.823C96.9169 315.961 97.4661 315.814 97.843 315.437L98.8974 314.382L99.6004 315.086L98.5459 316.14C98.0806 316.608 97.4476 316.87 96.788 316.868ZM97.1395 314.734L96.4365 314.031L99.9519 310.516L100.655 311.219L97.14 314.733L97.1395 314.734ZM101.007 313.679L100.303 312.976L101.358 311.922C101.74 311.546 101.891 310.995 101.754 310.477C101.617 309.959 101.212 309.554 100.694 309.417C100.176 309.28 99.6247 309.431 99.2489 309.813L98.194 310.867L97.491 310.164L98.5459 309.109C99.5179 308.146 101.086 308.149 102.054 309.117C103.021 310.085 103.025 311.653 102.061 312.625L101.007 313.679V313.679Z" fill="#F8F2FC"/>
</g>
</g>
</g>
<g id="Text_7">
<text id="Subtitle_13" fill="#79819A" xml:space="preserve" style="white-space: pre" font-family="DM Sans" font-size="7.5" letter-spacing="0.01em"><tspan x="117.636" y="308.989">Web resume</tspan></text>
<text id="Subtitle_14" fill="#47516B" xml:space="preserve" style="white-space: pre" font-family="DM Sans" font-size="8.5" font-weight="500" letter-spacing="0em"><tspan x="117.636" y="321.217">https://resume.kki.ovh</tspan></text>
</g>
</g>
</g>
<g id="Divider_3" clip-path="url(#clip9_374_11599)">
<rect id="divider_3" x="89.1491" y="336.467" width="168.702" height="0.298295" stroke="#E2E6EE" stroke-width="0.298295" stroke-linejoin="round"/>
</g>
<g id="Languagues">
<text id="Subtitle_15" fill="#79819A" xml:space="preserve" style="white-space: pre" font-family="DM Sans" font-size="7.5" letter-spacing="0.01em"><tspan x="89" y="356.472">Languages</tspan></text>
<g id="Row_3">
<g id=" poland" clip-path="url(#clip10_374_11599)">
<g id="artwork">
<g clip-path="url(#clip11_374_11599)">
<rect x="89" y="372.881" width="26.25" height="19.0909" rx="2.38636" fill="#AF010D"/>
<path id="vector" fill-rule="evenodd" clip-rule="evenodd" d="M89 372.881H115.25V382.426H89V372.881Z" fill="#F8F2FC"/>
</g>
</g>
</g>
<g id="Text_8">
<text id="Subtitle_16" fill="#47516B" xml:space="preserve" style="white-space: pre" font-family="DM Sans" font-size="8.5" font-weight="500" letter-spacing="0em"><tspan x="124.795" y="380.131">Polish</tspan></text>
<text id="Subtitle_17" fill="#79819A" xml:space="preserve" style="white-space: pre" font-family="DM Sans" font-size="7.5" letter-spacing="0.01em"><tspan x="124.795" y="391.177">Native</tspan></text>
</g>
</g>
<g id="Row_4">
<g id=" united-kingdom" clip-path="url(#clip12_374_11599)">
<g id="artwork_2">
<g clip-path="url(#clip13_374_11599)">
<rect x="89" y="411.585" width="26.25" height="19.0909" rx="2.38636" fill="#1A47B8"/>
<path id="vector_2" fill-rule="evenodd" clip-rule="evenodd" d="M91.7925 411.585H89V414.767L112.442 430.676L115.25 430.676V427.494L91.7925 411.585Z" fill="white"/>
<path id="vector_3" d="M89.9314 411.585L115.25 428.812V430.676H114.34L89 413.431V411.585H89.9314Z" fill="#F93939"/>
<path id="vector_4" fill-rule="evenodd" clip-rule="evenodd" d="M112.75 411.585H115.25V414.767C115.25 414.767 99.0123 425.366 91.5001 430.676H89.0001V427.494L112.75 411.585Z" fill="white"/>
<path id="vector_5" d="M115.25 411.585H114.402L89 428.827V430.676H89.9314L115.25 413.445V411.585Z" fill="#F93939"/>
<path id="vector_6" fill-rule="evenodd" clip-rule="evenodd" d="M98.5463 411.585H105.725V417.474H115.25V424.784H105.725V430.676H98.5463V424.784H89V417.474H98.5463V411.585Z" fill="white"/>
<path id="vector_7" fill-rule="evenodd" clip-rule="evenodd" d="M100.053 411.585H104.197V418.928H115.25V423.333H104.197V430.676H100.053V423.333H89V418.928H100.053V411.585Z" fill="#F93939"/>
</g>
</g>
</g>
<g id="Text_9">
<text id="Subtitle_18" fill="#47516B" xml:space="preserve" style="white-space: pre" font-family="DM Sans" font-size="8.5" font-weight="500" letter-spacing="0em"><tspan x="124.795" y="414.836">English</tspan></text>
<text id="Subtitle_19" fill="#79819A" xml:space="preserve" style="white-space: pre" font-family="DM Sans" font-size="7.5" letter-spacing="0.01em"><tspan x="124.795" y="425.881">C1: reading&#x2028;</tspan><tspan x="124.795" y="433.881">B1: speaking, writing</tspan></text>
</g>
</g>
</g>
<g id="Divider_4" clip-path="url(#clip14_374_11599)">
<rect id="divider_4" x="89.1491" y="448.473" width="168.702" height="0.298295" stroke="#E2E6EE" stroke-width="0.298295" stroke-linejoin="round"/>
</g>
<g id="Skillset">
<text id="Subtitle_20" fill="#79819A" xml:space="preserve" style="white-space: pre" font-family="DM Sans" font-size="7.5" letter-spacing="0.01em"><tspan x="89" y="469.478">Technical skills</tspan></text>
<g id="Row_5">
<g id="Text_10">
<g id="TextRow">
<g id="misc/dot_04_l">
<path id="Icon_5" d="M94 493.822C92.8494 493.822 91.9167 492.889 91.9167 491.739C91.9167 490.588 92.8494 489.655 94 489.655C95.1506 489.655 96.0833 490.588 96.0833 491.739C96.0833 492.889 95.1506 493.822 94 493.822Z" fill="#95AAFB"/>
</g>
<text id="Text_11" fill="#232339" xml:space="preserve" style="white-space: pre" font-family="DM Sans" font-size="8.5" letter-spacing="0em"><tspan x="104" y="494.637">C++14, CMake, Conan</tspan></text>
</g>
<g id="TextRow_2">
<g id="misc/dot_04_l_2">
<path id="Icon_6" d="M94 507.208C92.8494 507.208 91.9167 506.276 91.9167 505.125C91.9167 503.974 92.8494 503.042 94 503.042C95.1506 503.042 96.0833 503.974 96.0833 505.125C96.0833 506.276 95.1506 507.208 94 507.208Z" fill="#95AAFB"/>
</g>
<text id="Text_12" fill="#232339" xml:space="preserve" style="white-space: pre" font-family="DM Sans" font-size="8.5" letter-spacing="0em"><tspan x="104" y="508.023">Lua</tspan></text>
</g>
<g id="TextRow_3">
<g id="misc/dot_04_l_3">
<path id="Icon_7" d="M94 520.595C92.8494 520.595 91.9167 519.662 91.9167 518.511C91.9167 517.361 92.8494 516.428 94 516.428C95.1506 516.428 96.0833 517.361 96.0833 518.511C96.0833 519.662 95.1506 520.595 94 520.595Z" fill="#95AAFB"/>
</g>
<text id="Text_13" fill="#232339" xml:space="preserve" style="white-space: pre" font-family="DM Sans" font-size="8.5" letter-spacing="0em"><tspan x="104" y="521.41">JavaScript (ES10), Node.js, TypeScript</tspan></text>
</g>
<g id="TextRow_4">
<g id="misc/dot_04_l_4">
<path id="Icon_8" d="M94 533.981C92.8494 533.981 91.9167 533.048 91.9167 531.898C91.9167 530.747 92.8494 529.814 94 529.814C95.1506 529.814 96.0833 530.747 96.0833 531.898C96.0833 533.048 95.1506 533.981 94 533.981Z" fill="#95AAFB"/>
</g>
<text id="Text_14" fill="#232339" xml:space="preserve" style="white-space: pre" font-family="DM Sans" font-size="8.5" letter-spacing="0em"><tspan x="104" y="534.796">CI / CD (GitHub Actions)</tspan></text>
</g>
<g id="TextRow_5">
<g id="misc/dot_04_l_5">
<path id="Icon_9" d="M94 547.367C92.8494 547.367 91.9167 546.435 91.9167 545.284C91.9167 544.133 92.8494 543.201 94 543.201C95.1506 543.201 96.0833 544.133 96.0833 545.284C96.0833 546.435 95.1506 547.367 94 547.367Z" fill="#95AAFB"/>
</g>
<text id="Text_15" fill="#232339" xml:space="preserve" style="white-space: pre" font-family="DM Sans" font-size="8.5" letter-spacing="0em"><tspan x="104" y="548.183">Linux, Docker</tspan></text>
</g>
<g id="TextRow_6">
<g id="misc/dot_04_l_6">
<path id="Icon_10" d="M94 560.754C92.8494 560.754 91.9167 559.821 91.9167 558.67C91.9167 557.52 92.8494 556.587 94 556.587C95.1506 556.587 96.0833 557.52 96.0833 558.67C96.0833 559.821 95.1506 560.754 94 560.754Z" fill="#95AAFB"/>
</g>
<text id="Text_16" fill="#232339" xml:space="preserve" style="white-space: pre" font-family="DM Sans" font-size="8.5" letter-spacing="0em"><tspan x="104" y="561.569">Apache2, nginx</tspan></text>
</g>
<g id="TextRow_7">
<g id="misc/dot_04_l_7">
<path id="Icon_11" d="M94 574.14C92.8494 574.14 91.9167 573.207 91.9167 572.057C91.9167 570.906 92.8494 569.973 94 569.973C95.1506 569.973 96.0833 570.906 96.0833 572.057C96.0833 573.207 95.1506 574.14 94 574.14Z" fill="#95AAFB"/>
</g>
<text id="Text_17" fill="#232339" xml:space="preserve" style="white-space: pre" font-family="DM Sans" font-size="8.5" letter-spacing="0em"><tspan x="104" y="574.955">MySQL, MariaDB, MongoDB</tspan></text>
</g>
<g id="TextRow_8">
<g id="misc/dot_04_l_8">
<path id="Icon_12" d="M94 587.526C92.8494 587.526 91.9167 586.594 91.9167 585.443C91.9167 584.293 92.8494 583.36 94 583.36C95.1506 583.36 96.0833 584.293 96.0833 585.443C96.0833 586.594 95.1506 587.526 94 587.526Z" fill="#95AAFB"/>
</g>
<text id="Text_18" fill="#232339" xml:space="preserve" style="white-space: pre" font-family="DM Sans" font-size="8.5" letter-spacing="0em"><tspan x="104" y="588.342">Version control, Git</tspan></text>
</g>
<g id="TextRow_9">
<g id="misc/dot_04_l_9">
<path id="Icon_13" d="M94 600.913C92.8494 600.913 91.9167 599.98 91.9167 598.83C91.9167 597.679 92.8494 596.746 94 596.746C95.1506 596.746 96.0833 597.679 96.0833 598.83C96.0833 599.98 95.1506 600.913 94 600.913Z" fill="#95AAFB"/>
</g>
<text id="Text_19" fill="#232339" xml:space="preserve" style="white-space: pre" font-family="DM Sans" font-size="8.5" letter-spacing="0em"><tspan x="104" y="601.728">Jira (basic), Trello</tspan></text>
</g>
<g id="TextRow_10">
<g id="misc/dot_04_l_10">
<path id="Icon_14" d="M94 614.299C92.8494 614.299 91.9167 613.366 91.9167 612.216C91.9167 611.065 92.8494 610.133 94 610.133C95.1506 610.133 96.0833 611.065 96.0833 612.216C96.0833 613.366 95.1506 614.299 94 614.299Z" fill="#95AAFB"/>
</g>
<text id="Text_20" fill="#232339" xml:space="preserve" style="white-space: pre" font-family="DM Sans" font-size="8.5" letter-spacing="0em"><tspan x="104" y="615.114">Scrum / Agile (theoretical)</tspan></text>
</g>
</g>
</g>
</g>
<g id="Divider_5" clip-path="url(#clip15_374_11599)">
<rect id="divider_5" x="89.1491" y="630.865" width="168.702" height="0.298295" stroke="#E2E6EE" stroke-width="0.298295" stroke-linejoin="round"/>
</g>
<g id="Soft skills">
<text id="Subtitle_21" fill="#79819A" xml:space="preserve" style="white-space: pre" font-family="DM Sans" font-size="7.5" letter-spacing="0.01em"><tspan x="89" y="650.87">Soft skills</tspan></text>
<g id="Row_6">
<g id="Text_21">
<g id="TextRow_11">
<g id="misc/dot_04_l_11">
<path id="Icon_15" d="M94 674.214C92.8494 674.214 91.9167 673.281 91.9167 672.131C91.9167 670.98 92.8494 670.047 94 670.047C95.1506 670.047 96.0833 670.98 96.0833 672.131C96.0833 673.281 95.1506 674.214 94 674.214Z" fill="#95AAFB"/>
</g>
<text id="Text_22" fill="#232339" xml:space="preserve" style="white-space: pre" font-family="DM Sans" font-size="8.5" letter-spacing="0em"><tspan x="104" y="675.029">Team player</tspan></text>
</g>
<g id="TextRow_12">
<g id="misc/dot_04_l_12">
<path id="Icon_16" d="M94 687.6C92.8494 687.6 91.9167 686.668 91.9167 685.517C91.9167 684.366 92.8494 683.434 94 683.434C95.1506 683.434 96.0833 684.366 96.0833 685.517C96.0833 686.668 95.1506 687.6 94 687.6Z" fill="#95AAFB"/>
</g>
<text id="Text_23" fill="#232339" xml:space="preserve" style="white-space: pre" font-family="DM Sans" font-size="8.5" letter-spacing="0em"><tspan x="104" y="688.416">Responsible</tspan></text>
</g>
<g id="TextRow_13">
<g id="misc/dot_04_l_13">
<path id="Icon_17" d="M94 700.987C92.8494 700.987 91.9167 700.054 91.9167 698.903C91.9167 697.753 92.8494 696.82 94 696.82C95.1506 696.82 96.0833 697.753 96.0833 698.903C96.0833 700.054 95.1506 700.987 94 700.987Z" fill="#95AAFB"/>
</g>
<text id="Text_24" fill="#232339" xml:space="preserve" style="white-space: pre" font-family="DM Sans" font-size="8.5" letter-spacing="0em"><tspan x="104" y="701.802">Resistant to stress</tspan></text>
</g>
<g id="TextRow_14">
<g id="misc/dot_04_l_14">
<path id="Icon_18" d="M94 714.373C92.8494 714.373 91.9167 713.44 91.9167 712.29C91.9167 711.139 92.8494 710.206 94 710.206C95.1506 710.206 96.0833 711.139 96.0833 712.29C96.0833 713.44 95.1506 714.373 94 714.373Z" fill="#95AAFB"/>
</g>
<text id="Text_25" fill="#232339" xml:space="preserve" style="white-space: pre" font-family="DM Sans" font-size="8.5" letter-spacing="0em"><tspan x="104" y="715.188">Creative</tspan></text>
</g>
<g id="TextRow_15">
<g id="misc/dot_04_l_15">
<path id="Icon_19" d="M94 727.759C92.8494 727.759 91.9167 726.827 91.9167 725.676C91.9167 724.526 92.8494 723.593 94 723.593C95.1506 723.593 96.0833 724.526 96.0833 725.676C96.0833 726.827 95.1506 727.759 94 727.759Z" fill="#95AAFB"/>
</g>
<text id="Text_26" fill="#232339" xml:space="preserve" style="white-space: pre" font-family="DM Sans" font-size="8.5" letter-spacing="0em"><tspan x="104" y="728.575">Fast learning</tspan></text>
</g>
<g id="TextRow_16">
<g id="misc/dot_04_l_16">
<path id="Icon_20" d="M94 741.146C92.8494 741.146 91.9167 740.213 91.9167 739.062C91.9167 737.912 92.8494 736.979 94 736.979C95.1506 736.979 96.0833 737.912 96.0833 739.062C96.0833 740.213 95.1506 741.146 94 741.146Z" fill="#95AAFB"/>
</g>
<text id="Text_27" fill="#232339" xml:space="preserve" style="white-space: pre" font-family="DM Sans" font-size="8.5" letter-spacing="0em"><tspan x="104" y="741.961">Aesthetic sense</tspan></text>
</g>
<g id="TextRow_17">
<g id="misc/dot_04_l_17">
<path id="Icon_21" d="M94 754.532C92.8494 754.532 91.9167 753.599 91.9167 752.449C91.9167 751.298 92.8494 750.366 94 750.366C95.1506 750.366 96.0833 751.298 96.0833 752.449C96.0833 753.599 95.1506 754.532 94 754.532Z" fill="#95AAFB"/>
</g>
<text id="Text_28" fill="#232339" xml:space="preserve" style="white-space: pre" font-family="DM Sans" font-size="8.5" letter-spacing="0em"><tspan x="104" y="755.347">Emotionally intelligent</tspan></text>
</g>
</g>
</g>
</g>
</g>
</g>
</g>
</g>
<defs>
<clipPath id="clip0_374_11599">
<rect width="169" height="0.596591" fill="white" transform="translate(89 66)"/>
</clipPath>
<clipPath id="clip1_374_11599">
<rect x="89" y="79.5966" width="19.0909" height="19.0909" rx="9.54545" fill="white"/>
</clipPath>
<clipPath id="clip2_374_11599">
<rect x="89" y="114.301" width="19.0909" height="19.0909" rx="9.54545" fill="white"/>
</clipPath>
<clipPath id="clip3_374_11599">
<rect x="89" y="149.653" width="19.0909" height="19.0909" rx="9.54545" fill="white"/>
</clipPath>
<clipPath id="clip4_374_11599">
<rect x="89" y="191.466" width="19.0909" height="19.0909" rx="9.54545" fill="white"/>
</clipPath>
<clipPath id="clip5_374_11599">
<rect width="11.9318" height="11.9318" fill="white" transform="translate(92.5795 195.045)"/>
</clipPath>
<clipPath id="clip6_374_11599">
<rect width="169" height="0.596591" fill="white" transform="translate(89 231.312)"/>
</clipPath>
<clipPath id="clip7_374_11599">
<rect x="89" y="267.875" width="19.0909" height="19.0909" rx="9.54545" fill="white"/>
</clipPath>
<clipPath id="clip8_374_11599">
<rect x="89" y="303.08" width="19.0909" height="19.0909" rx="9.54545" fill="white"/>
</clipPath>
<clipPath id="clip9_374_11599">
<rect width="169" height="0.596591" fill="white" transform="translate(89 336.318)"/>
</clipPath>
<clipPath id="clip10_374_11599">
<rect width="26.25" height="19.0909" fill="white" transform="translate(89 372.881)"/>
</clipPath>
<clipPath id="clip11_374_11599">
<rect x="89" y="372.881" width="26.25" height="19.0909" rx="2.38636" fill="white"/>
</clipPath>
<clipPath id="clip12_374_11599">
<rect width="26.25" height="19.0909" fill="white" transform="translate(89 411.585)"/>
</clipPath>
<clipPath id="clip13_374_11599">
<rect x="89" y="411.585" width="26.25" height="19.0909" rx="2.38636" fill="white"/>
</clipPath>
<clipPath id="clip14_374_11599">
<rect width="169" height="0.596591" fill="white" transform="translate(89 448.324)"/>
</clipPath>
<clipPath id="clip15_374_11599">
<rect width="169" height="0.596591" fill="white" transform="translate(89 630.716)"/>
</clipPath>
</defs>
</svg>
