<svg width="210" height="800" viewBox="0 0 210 800" fill="none" xmlns="http://www.w3.org/2000/svg">
<g id="Aside">
<rect width="210" height="800" fill="#F7F9FC"/>
<g id="Main">
<g id="Container">
<g id="Header">
<g id="Header_2">
<g id="Text">
<text id="Name" fill="#2E2E48" xml:space="preserve" style="white-space: pre" font-family="Outfit" font-size="20" font-weight="bold" letter-spacing="-0.03em"><tspan x="20" y="37.4">Krzysztof Piskorski</tspan></text>
<text id="Age: 22" fill="#ACB1C3" xml:space="preserve" style="white-space: pre" font-family="Outfit" font-size="9" letter-spacing="0.02em"><tspan x="20" y="50.33">Age: 22</tspan></text>
</g>
</g>
</g>
<g id="Divider" clip-path="url(#clip0_378_11987)">
<rect id="divider" x="20.1491" y="66.1491" width="169.702" height="0.298295" stroke="#E2E6EE" stroke-width="0.298295" stroke-linejoin="round"/>
</g>
<g id="Infos">
<g id="EmailRow">
<g id="Featured icon">
<g clip-path="url(#clip1_378_11987)">
<rect id="Rectangle" x="20" y="79.5966" width="19.0909" height="19.0909" rx="9.54545" fill="#E2E6EE"/>
<g id="basic/mail">
<path id="Icon" d="M33.5227 93.1193H25.5681C25.019 93.1193 24.5738 92.6741 24.5738 92.125V86.1158C24.597 85.5836 25.0355 85.1642 25.5681 85.1647H33.5227C34.0718 85.1647 34.517 85.6099 34.517 86.1591V92.125C34.517 92.6741 34.0718 93.1193 33.5227 93.1193ZM25.5681 87.0877V92.125H33.5227V87.0877L29.5454 89.7386L25.5681 87.0877ZM25.9659 86.1591L29.5454 88.5454L33.125 86.1591H25.9659Z" fill="#79819A"/>
</g>
</g>
</g>
<g id="Text_2">
<text id="Subtitle" fill="#79819A" xml:space="preserve" style="white-space: pre" font-family="DM Sans" font-size="7.5" letter-spacing="0.01em"><tspan x="48.6364" y="86.1541">Email</tspan></text>
<text id="Subtitle_2" fill="#47516B" xml:space="preserve" style="white-space: pre" font-family="DM Sans" font-size="8" font-weight="500" letter-spacing="0em"><tspan x="48.6364" y="97.7109">k.n.piskorski@gmail.com</tspan></text>
</g>
</g>
<g id="PhoneRow">
<g id="Featured icon_2">
<g clip-path="url(#clip2_378_11987)">
<rect id="Rectangle_2" x="20" y="114.301" width="19.0909" height="19.0909" rx="9.54545" fill="#E2E6EE"/>
<g id="basic/phone">
<path id="Icon_2" d="M33.0243 127.824C28.7827 127.83 25.5636 124.572 25.5682 120.368C25.5682 120.093 25.7907 119.869 26.0653 119.869H27.3775C27.6239 119.869 27.8332 120.05 27.8693 120.294C27.9561 120.878 28.1261 121.447 28.3744 121.983L28.4254 122.093C28.4965 122.246 28.4483 122.428 28.3108 122.527C27.9044 122.817 27.7491 123.401 28.0657 123.857C28.463 124.429 28.9638 124.929 29.5356 125.326C29.9914 125.643 30.5754 125.488 30.8656 125.081C30.9639 124.944 31.1462 124.896 31.2996 124.967L31.4094 125.017C31.9452 125.266 32.5139 125.436 33.098 125.522C33.3417 125.559 33.5227 125.768 33.5227 126.014V127.327C33.5227 127.601 33.2996 127.824 33.025 127.824L33.0243 127.824Z" fill="#79819A"/>
</g>
</g>
</g>
<g id="Text_3">
<text id="Subtitle_3" fill="#79819A" xml:space="preserve" style="white-space: pre" font-family="DM Sans" font-size="7.5" letter-spacing="0.01em"><tspan x="48.6364" y="120.859">Phone</tspan></text>
<text id="Subtitle_4" fill="#47516B" xml:space="preserve" style="white-space: pre" font-family="DM Sans" font-size="8" font-weight="500" letter-spacing="0em"><tspan x="48.6364" y="132.415">+48666723089</tspan></text>
</g>
</g>
<g id="Row">
<g id="Featured icon_3">
<g clip-path="url(#clip3_378_11987)">
<rect id="Rectangle_3" x="20" y="149.653" width="19.0909" height="19.0909" rx="9.54545" fill="#E2E6EE"/>
<g id="basic/location">
<path id="Icon_3" d="M29.5455 163.673C28.9175 163.138 28.3355 162.55 27.8054 161.918C27.0099 160.968 26.0653 159.553 26.0653 158.204C26.0646 156.796 26.9126 155.526 28.2136 154.988C29.5146 154.449 31.0121 154.747 32.0074 155.743C32.6619 156.395 33.0285 157.281 33.0256 158.204C33.0256 159.553 32.081 160.968 31.2855 161.918C30.7554 162.55 30.1734 163.138 29.5455 163.673ZM29.5455 156.713C29.0126 156.713 28.5202 156.997 28.2538 157.459C27.9874 157.92 27.9874 158.489 28.2538 158.95C28.5202 159.412 29.0126 159.696 29.5455 159.696C30.3692 159.696 31.0369 159.028 31.0369 158.204C31.0369 157.381 30.3692 156.713 29.5455 156.713Z" fill="#79819A"/>
</g>
</g>
</g>
<g id="Text_4">
<text id="Subtitle_5" fill="#79819A" xml:space="preserve" style="white-space: pre" font-family="DM Sans" font-size="7.5" letter-spacing="0.01em"><tspan x="48.6364" y="155.563">Address</tspan></text>
<text id="Subtitle_6" fill="#47516B" xml:space="preserve" style="white-space: pre" font-family="DM Sans" font-size="8" font-weight="500" letter-spacing="0em"><tspan x="48.6364" y="167.12">Wroc&#x142;aw, Kr&#xf3;lewiecka</tspan></text>
</g>
</g>
<g id="Row_2">
<g id="Featured icon_4">
<g clip-path="url(#clip4_378_11987)">
<rect id="Rectangle_4" x="20" y="191.466" width="19.0909" height="19.0909" rx="9.54545" fill="#E2E6EE"/>
<g id="basic/location_2" clip-path="url(#clip5_378_11987)">
<path id="Vector" d="M29.5454 196.239L23.5795 199.42L25.749 200.576V203.758L29.5454 205.784L33.3419 203.758V200.576L34.4266 199.998V203.663H35.5113V199.42L29.5454 196.239ZM33.2443 199.42L29.5454 201.393L25.8466 199.42L29.5454 197.448L33.2443 199.42ZM32.2572 203.127L29.5454 204.575L26.8337 203.127V201.155L29.5454 202.602L32.2572 201.155V203.127Z" fill="#79819A"/>
</g>
</g>
</g>
<g id="Text_5">
<text id="Subtitle_7" fill="#79819A" xml:space="preserve" style="white-space: pre" font-family="DM Sans" font-size="7.5" letter-spacing="0.01em"><tspan x="48.6364" y="190.268">Education</tspan></text>
<g id="Frame 1">
<text id="Subtitle_8" fill="#47516B" xml:space="preserve" style="white-space: pre" font-family="DM Sans" font-size="8" font-weight="500" letter-spacing="0em"><tspan x="48.6364" y="201.825">IT technician</tspan></text>
<text id="Subtitle_9" fill="#95AAFB" xml:space="preserve" style="white-space: pre" font-family="DM Sans" font-size="7" letter-spacing="0.01em"><tspan x="48.6364" y="210.984">ZSE Gniezno</tspan></text>
</g>
</g>
</g>
</g>
<g id="Divider_2" clip-path="url(#clip6_378_11987)">
<rect id="divider_2" x="20.1491" y="231.462" width="169.702" height="0.298295" stroke="#E2E6EE" stroke-width="0.298295" stroke-linejoin="round"/>
</g>
<g id="Socials">
<text id="Subtitle_10" fill="#79819A" xml:space="preserve" style="white-space: pre" font-family="DM Sans" font-size="7.5" letter-spacing="0.01em"><tspan x="20" y="251.467">Socials</tspan></text>
<g id="GithubRow">
<g id="Social icon">
<g clip-path="url(#clip7_378_11987)">
<rect x="20" y="267.875" width="19.0909" height="19.0909" rx="9.54545" fill="white"/>
<g id="GitHub">
<path id="Vector_2" d="M28.4517 266.98C23.8778 267.477 20.1989 271.156 19.7017 275.631C19.2045 280.304 21.8892 284.48 25.9659 286.071C26.2642 286.17 26.5625 285.972 26.5625 285.574V283.983C26.5625 283.983 26.1648 284.082 25.6676 284.082C24.2756 284.082 23.679 282.889 23.5795 282.193C23.4801 281.795 23.2812 281.497 22.9829 281.199C22.6846 281.099 22.5852 281.099 22.5852 281C22.5852 280.801 22.8835 280.801 22.9829 280.801C23.5795 280.801 24.0767 281.497 24.2756 281.795C24.7727 282.591 25.3693 282.79 25.6676 282.79C26.0653 282.79 26.3636 282.69 26.5625 282.591C26.6619 281.895 26.9602 281.199 27.5568 280.801C25.2699 280.304 23.5795 279.011 23.5795 276.824C23.5795 275.73 24.0767 274.636 24.7727 273.841C24.6733 273.642 24.5739 273.145 24.5739 272.449C24.5739 272.051 24.5739 271.455 24.8721 270.858C24.8721 270.858 26.2642 270.858 27.6562 272.151C28.1534 271.952 28.8494 271.852 29.5454 271.852C30.2415 271.852 30.9375 271.952 31.5341 272.151C32.8267 270.858 34.3182 270.858 34.3182 270.858C34.517 271.455 34.517 272.051 34.517 272.449C34.517 273.244 34.4176 273.642 34.3182 273.841C35.0142 274.636 35.5114 275.631 35.5114 276.824C35.5114 279.011 33.821 280.304 31.5341 280.801C32.1307 281.298 32.5284 282.193 32.5284 283.088V285.673C32.5284 285.972 32.8267 286.27 33.2244 286.17C36.9034 284.679 39.4886 281.099 39.4886 276.923C39.4886 270.957 34.4176 266.284 28.4517 266.98Z" fill="black"/>
</g>
</g>
</g>
<g id="Text_6">
<text id="Subtitle_11" fill="#79819A" xml:space="preserve" style="white-space: pre" font-family="DM Sans" font-size="7.5" letter-spacing="0.01em"><tspan x="48.6364" y="273.785">GitHub</tspan></text>
<text id="Subtitle_12" fill="#47516B" xml:space="preserve" style="white-space: pre" font-family="DM Sans" font-size="8" font-weight="500" letter-spacing="0em"><tspan x="48.6364" y="285.342">@atkki</tspan></text>
</g>
</g>
<g id="ResumeRow">
<g id="Featured icon_5">
<g clip-path="url(#clip8_378_11987)">
<rect id="Rectangle_5" x="20" y="303.08" width="19.0909" height="19.0909" rx="9.54545" fill="#95AAFB"/>
<g id="basic/link_02">
<path id="Icon_4" d="M27.788 316.868C26.7827 316.868 25.8763 316.263 25.4915 315.334C25.1067 314.405 25.3193 313.336 26.03 312.625L27.085 311.57L27.788 312.273L26.7335 313.327C26.3567 313.704 26.2095 314.254 26.3475 314.768C26.4854 315.283 26.8874 315.685 27.4022 315.823C27.9169 315.961 28.4661 315.814 28.843 315.437L29.8974 314.382L30.6004 315.086L29.5459 316.14C29.0806 316.608 28.4476 316.87 27.788 316.868ZM28.1395 314.734L27.4365 314.031L30.9519 310.516L31.6549 311.219L28.14 314.733L28.1395 314.734ZM32.0069 313.679L31.3034 312.976L32.3579 311.922C32.7398 311.546 32.8909 310.995 32.7537 310.477C32.6165 309.959 32.2121 309.554 31.6943 309.417C31.1764 309.28 30.6247 309.431 30.2489 309.813L29.194 310.867L28.491 310.164L29.5459 309.109C30.5179 308.146 32.0859 308.149 33.0537 309.117C34.0214 310.085 34.0249 311.653 33.0614 312.625L32.0069 313.679V313.679Z" fill="#F8F2FC"/>
</g>
</g>
</g>
<g id="Text_7">
<text id="Subtitle_13" fill="#79819A" xml:space="preserve" style="white-space: pre" font-family="DM Sans" font-size="7" letter-spacing="0.01em"><tspan x="48.6364" y="308.819">Resume with previews</tspan></text>
<text id="Subtitle_14" fill="#47516B" xml:space="preserve" style="white-space: pre" font-family="DM Sans" font-size="8" font-weight="500" letter-spacing="0em"><tspan x="48.6364" y="321.046">https://resume.kki.ovh</tspan></text>
</g>
</g>
</g>
<g id="Divider_3" clip-path="url(#clip9_378_11987)">
<rect id="divider_3" x="20.1491" y="336.467" width="169.702" height="0.298295" stroke="#E2E6EE" stroke-width="0.298295" stroke-linejoin="round"/>
</g>
<g id="Languagues">
<text id="Subtitle_15" fill="#79819A" xml:space="preserve" style="white-space: pre" font-family="DM Sans" font-size="8" letter-spacing="0em"><tspan x="20" y="357.643">Languages</tspan></text>
<g id="Row_3">
<g id=" poland" clip-path="url(#clip10_378_11987)">
<g id="artwork">
<g clip-path="url(#clip11_378_11987)">
<rect x="20" y="375.881" width="26.25" height="19.0909" rx="2.38636" fill="#AF010D"/>
<path id="vector" fill-rule="evenodd" clip-rule="evenodd" d="M20 375.881H46.25V385.426H20V375.881Z" fill="#F8F2FC"/>
</g>
</g>
</g>
<g id="Text_8">
<text id="Subtitle_16" fill="#47516B" xml:space="preserve" style="white-space: pre" font-family="DM Sans" font-size="8" font-weight="500" letter-spacing="0em"><tspan x="55.7954" y="381.961">Polish</tspan></text>
<text id="Subtitle_17" fill="#79819A" xml:space="preserve" style="white-space: pre" font-family="DM Sans" font-size="7.15909" letter-spacing="0.01em"><tspan x="55.7954" y="393.833">Native</tspan></text>
</g>
</g>
<g id="Row_4">
<g id=" united-kingdom" clip-path="url(#clip12_378_11987)">
<g id="artwork_2">
<g clip-path="url(#clip13_378_11987)">
<rect x="20" y="415.585" width="26.25" height="19.0909" rx="2.38636" fill="#1A47B8"/>
<path id="vector_2" fill-rule="evenodd" clip-rule="evenodd" d="M22.7925 415.585H20V418.767L43.4424 434.676L46.25 434.676V431.494L22.7925 415.585Z" fill="white"/>
<path id="vector_3" d="M20.9314 415.585L46.25 432.812V434.676H45.3405L20 417.431V415.585H20.9314Z" fill="#F93939"/>
<path id="vector_4" fill-rule="evenodd" clip-rule="evenodd" d="M43.7501 415.585H46.2501V418.767C46.2501 418.767 30.0123 429.366 22.5001 434.676H20.0001V431.494L43.7501 415.585Z" fill="white"/>
<path id="vector_5" d="M46.25 415.585H45.4022L20 432.827V434.676H20.9314L46.25 417.445V415.585Z" fill="#F93939"/>
<path id="vector_6" fill-rule="evenodd" clip-rule="evenodd" d="M29.5463 415.585H36.7255V421.474H46.25V428.784H36.7255V434.676H29.5463V428.784H20V421.474H29.5463V415.585Z" fill="white"/>
<path id="vector_7" fill-rule="evenodd" clip-rule="evenodd" d="M31.0526 415.585H35.1974V422.928H46.25V427.333H35.1974V434.676H31.0526V427.333H20V422.928H31.0526V415.585Z" fill="#F93939"/>
</g>
</g>
</g>
<g id="Text_9">
<text id="Subtitle_18" fill="#47516B" xml:space="preserve" style="white-space: pre" font-family="DM Sans" font-size="8" font-weight="500" letter-spacing="0em"><tspan x="55.7954" y="418.665">English</tspan></text>
<text id="Subtitle_19" fill="#79819A" xml:space="preserve" style="white-space: pre" font-family="DM Sans" font-size="7.5" letter-spacing="0.01em"><tspan x="55.7954" y="429.881">C1: reading&#x2028;</tspan><tspan x="55.7954" y="437.881">B1: speaking, writing</tspan></text>
</g>
</g>
</g>
<g id="Divider_4" clip-path="url(#clip14_378_11987)">
<rect id="divider_4" x="20.1491" y="452.473" width="169.702" height="0.298295" stroke="#E2E6EE" stroke-width="0.298295" stroke-linejoin="round"/>
</g>
<g id="Skillset">
<g id="Subtitle_20">
<text fill="#79819A" xml:space="preserve" style="white-space: pre" font-family="DM Sans" font-size="7.15909" letter-spacing="0.01em"><tspan x="20" y="473.251">Technical </tspan></text>
<text fill="#79819A" xml:space="preserve" style="white-space: pre" font-family="DM Sans" font-size="7.5" letter-spacing="0.01em"><tspan x="53.582" y="473.251">skills</tspan></text>
</g>
<g id="Row_5">
<g id="Text_10">
<g id="TextRow">
<g id="misc/dot_04_l">
<path id="Icon_5" d="M25 497.322C23.8494 497.322 22.9167 496.389 22.9167 495.239C22.9167 494.088 23.8494 493.155 25 493.155C26.1506 493.155 27.0833 494.088 27.0833 495.239C27.0833 496.389 26.1506 497.322 25 497.322Z" fill="#95AAFB"/>
</g>
<text id="Text_11" fill="#232339" xml:space="preserve" style="white-space: pre" font-family="DM Sans" font-size="8" letter-spacing="0em"><tspan x="35" y="497.967">C++14</tspan></text>
</g>
<g id="TextRow_2">
<g id="misc/dot_04_l_2">
<path id="Icon_6" d="M25 509.708C23.8494 509.708 22.9167 508.776 22.9167 507.625C22.9167 506.474 23.8494 505.542 25 505.542C26.1506 505.542 27.0833 506.474 27.0833 507.625C27.0833 508.776 26.1506 509.708 25 509.708Z" fill="#95AAFB"/>
</g>
<text id="Text_12" fill="#232339" xml:space="preserve" style="white-space: pre" font-family="DM Sans" font-size="8" letter-spacing="0em"><tspan x="35" y="510.353">Scripting: Lua, JS (ES6), TypeScript</tspan></text>
</g>
<g id="TextRow_3">
<g id="misc/dot_04_l_3">
<path id="Icon_7" d="M25 522.095C23.8494 522.095 22.9167 521.162 22.9167 520.011C22.9167 518.861 23.8494 517.928 25 517.928C26.1506 517.928 27.0833 518.861 27.0833 520.011C27.0833 521.162 26.1506 522.095 25 522.095Z" fill="#95AAFB"/>
</g>
<text id="Text_13" fill="#232339" xml:space="preserve" style="white-space: pre" font-family="DM Sans" font-size="8" letter-spacing="0em"><tspan x="35" y="522.739">Unreal Engine 5</tspan></text>
</g>
<g id="TextRow_4">
<g id="misc/dot_04_l_4">
<path id="Icon_8" d="M25 534.481C23.8494 534.481 22.9167 533.548 22.9167 532.398C22.9167 531.247 23.8494 530.314 25 530.314C26.1506 530.314 27.0833 531.247 27.0833 532.398C27.0833 533.548 26.1506 534.481 25 534.481Z" fill="#95AAFB"/>
</g>
<text id="Text_14" fill="#232339" xml:space="preserve" style="white-space: pre" font-family="DM Sans" font-size="8" letter-spacing="0em"><tspan x="35" y="535.126">CI / CD, Linux knowledge</tspan></text>
</g>
<g id="TextRow_5">
<g id="misc/dot_04_l_5">
<path id="Icon_9" d="M25 546.867C23.8494 546.867 22.9167 545.935 22.9167 544.784C22.9167 543.633 23.8494 542.701 25 542.701C26.1506 542.701 27.0833 543.633 27.0833 544.784C27.0833 545.935 26.1506 546.867 25 546.867Z" fill="#95AAFB"/>
</g>
<text id="Text_15" fill="#232339" xml:space="preserve" style="white-space: pre" font-family="DM Sans" font-size="8" letter-spacing="0em"><tspan x="35" y="547.512">Version control, Git</tspan></text>
</g>
<g id="TextRow_6">
<g id="misc/dot_04_l_6">
<path id="Icon_10" d="M25 559.254C23.8494 559.254 22.9167 558.321 22.9167 557.17C22.9167 556.02 23.8494 555.087 25 555.087C26.1506 555.087 27.0833 556.02 27.0833 557.17C27.0833 558.321 26.1506 559.254 25 559.254Z" fill="#95AAFB"/>
</g>
<text id="Text_16" fill="#232339" xml:space="preserve" style="white-space: pre" font-family="DM Sans" font-size="8" letter-spacing="0em"><tspan x="35" y="559.898">Audio engineering, music production</tspan></text>
</g>
</g>
<g id="MusicPreview">
<rect x="20.5" y="572.216" width="66" height="19" rx="7.5" fill="#F7F9FC"/>
<g id="Content">
<g id="Icon / small">
<g id="Perm media">
<path id="Vector_3" d="M37.5 577.216H31.5C30.95 577.216 30.5 577.621 30.5 578.116V583.516C30.5 584.011 30.95 584.416 31.5 584.416H37.5C38.05 584.416 38.5 584.011 38.5 583.516V578.116C38.5 577.621 38.05 577.216 37.5 577.216ZM37.5 583.516H31.5V578.116H37.5V583.516ZM33.75 583.066C34.44 583.066 35 582.562 35 581.941V579.466H36.5V578.566H34.5V581.045C34.29 580.901 34.035 580.816 33.75 580.816C33.06 580.816 32.5 581.32 32.5 581.941C32.5 582.562 33.06 583.066 33.75 583.066ZM29.5 579.016H28.5V585.316C28.5 585.811 28.95 586.216 29.5 586.216H36.5V585.316H29.5V579.016Z" fill="#9251F7"/>
</g>
</g>
<text id="PREVIEW" fill="#9251F7" xml:space="preserve" style="white-space: pre" font-family="DM Sans" font-size="8" font-weight="500" letter-spacing="0em"><tspan x="43.9414" y="584.444">PREVIEW</tspan></text>
</g>
<rect x="20.5" y="572.216" width="66" height="19" rx="7.5" stroke="#9251F7"/>
</g>
</g>
</g>
<g id="Divider_5" clip-path="url(#clip15_378_11987)">
<rect id="divider_5" x="20.1491" y="604.865" width="169.702" height="0.298295" stroke="#E2E6EE" stroke-width="0.298295" stroke-linejoin="round"/>
</g>
<g id="Soft skills">
<text id="Subtitle_21" fill="#79819A" xml:space="preserve" style="white-space: pre" font-family="DM Sans" font-size="7.5" letter-spacing="0.01em"><tspan x="20" y="624.87">Soft skills</tspan></text>
<g id="Row_6">
<g id="Text_17">
<g id="TextRow_7">
<g id="misc/dot_04_l_7">
<path id="Icon_11" d="M25 647.714C23.8494 647.714 22.9167 646.781 22.9167 645.631C22.9167 644.48 23.8494 643.547 25 643.547C26.1506 643.547 27.0833 644.48 27.0833 645.631C27.0833 646.781 26.1506 647.714 25 647.714Z" fill="#95AAFB"/>
</g>
<text id="Text_18" fill="#232339" xml:space="preserve" style="white-space: pre" font-family="DM Sans" font-size="8" letter-spacing="0em"><tspan x="35" y="648.359">Team player</tspan></text>
</g>
<g id="TextRow_8">
<g id="misc/dot_04_l_8">
<path id="Icon_12" d="M25 660.1C23.8494 660.1 22.9167 659.168 22.9167 658.017C22.9167 656.866 23.8494 655.934 25 655.934C26.1506 655.934 27.0833 656.866 27.0833 658.017C27.0833 659.168 26.1506 660.1 25 660.1Z" fill="#95AAFB"/>
</g>
<text id="Text_19" fill="#232339" xml:space="preserve" style="white-space: pre" font-family="DM Sans" font-size="8" letter-spacing="0em"><tspan x="35" y="660.745">Responsible</tspan></text>
</g>
<g id="TextRow_9">
<g id="misc/dot_04_l_9">
<path id="Icon_13" d="M25 672.487C23.8494 672.487 22.9167 671.554 22.9167 670.403C22.9167 669.253 23.8494 668.32 25 668.32C26.1506 668.32 27.0833 669.253 27.0833 670.403C27.0833 671.554 26.1506 672.487 25 672.487Z" fill="#95AAFB"/>
</g>
<text id="Text_20" fill="#232339" xml:space="preserve" style="white-space: pre" font-family="DM Sans" font-size="8" letter-spacing="0em"><tspan x="35" y="673.131">Resistant to stress</tspan></text>
</g>
<g id="TextRow_10">
<g id="misc/dot_04_l_10">
<path id="Icon_14" d="M25 684.873C23.8494 684.873 22.9167 683.94 22.9167 682.79C22.9167 681.639 23.8494 680.706 25 680.706C26.1506 680.706 27.0833 681.639 27.0833 682.79C27.0833 683.94 26.1506 684.873 25 684.873Z" fill="#95AAFB"/>
</g>
<text id="Text_21" fill="#232339" xml:space="preserve" style="white-space: pre" font-family="DM Sans" font-size="8" letter-spacing="0em"><tspan x="35" y="685.518">Creative</tspan></text>
</g>
<g id="TextRow_11">
<g id="misc/dot_04_l_11">
<path id="Icon_15" d="M25 697.259C23.8494 697.259 22.9167 696.327 22.9167 695.176C22.9167 694.026 23.8494 693.093 25 693.093C26.1506 693.093 27.0833 694.026 27.0833 695.176C27.0833 696.327 26.1506 697.259 25 697.259Z" fill="#95AAFB"/>
</g>
<text id="Text_22" fill="#232339" xml:space="preserve" style="white-space: pre" font-family="DM Sans" font-size="8" letter-spacing="0em"><tspan x="35" y="697.904">Fast learning</tspan></text>
</g>
<g id="TextRow_12">
<g id="misc/dot_04_l_12">
<path id="Icon_16" d="M25 709.646C23.8494 709.646 22.9167 708.713 22.9167 707.563C22.9167 706.412 23.8494 705.479 25 705.479C26.1506 705.479 27.0833 706.412 27.0833 707.563C27.0833 708.713 26.1506 709.646 25 709.646Z" fill="#95AAFB"/>
</g>
<text id="Text_23" fill="#232339" xml:space="preserve" style="white-space: pre" font-family="DM Sans" font-size="8" letter-spacing="0em"><tspan x="35" y="710.291">Aesthetic sense</tspan></text>
</g>
<g id="TextRow_13">
<g id="misc/dot_04_l_13">
<path id="Icon_17" d="M25 722.032C23.8494 722.032 22.9167 721.099 22.9167 719.949C22.9167 718.798 23.8494 717.866 25 717.866C26.1506 717.866 27.0833 718.798 27.0833 719.949C27.0833 721.099 26.1506 722.032 25 722.032Z" fill="#95AAFB"/>
</g>
<text id="Text_24" fill="#232339" xml:space="preserve" style="white-space: pre" font-family="DM Sans" font-size="8" letter-spacing="0em"><tspan x="35" y="722.677">Emotionally intelligent</tspan></text>
</g>
</g>
</g>
</g>
</g>
</g>
</g>
<defs>
<clipPath id="clip0_378_11987">
<rect width="170" height="0.596591" fill="white" transform="translate(20 66)"/>
</clipPath>
<clipPath id="clip1_378_11987">
<rect x="20" y="79.5966" width="19.0909" height="19.0909" rx="9.54545" fill="white"/>
</clipPath>
<clipPath id="clip2_378_11987">
<rect x="20" y="114.301" width="19.0909" height="19.0909" rx="9.54545" fill="white"/>
</clipPath>
<clipPath id="clip3_378_11987">
<rect x="20" y="149.653" width="19.0909" height="19.0909" rx="9.54545" fill="white"/>
</clipPath>
<clipPath id="clip4_378_11987">
<rect x="20" y="191.466" width="19.0909" height="19.0909" rx="9.54545" fill="white"/>
</clipPath>
<clipPath id="clip5_378_11987">
<rect width="11.9318" height="11.9318" fill="white" transform="translate(23.5795 195.045)"/>
</clipPath>
<clipPath id="clip6_378_11987">
<rect width="170" height="0.596591" fill="white" transform="translate(20 231.312)"/>
</clipPath>
<clipPath id="clip7_378_11987">
<rect x="20" y="267.875" width="19.0909" height="19.0909" rx="9.54545" fill="white"/>
</clipPath>
<clipPath id="clip8_378_11987">
<rect x="20" y="303.08" width="19.0909" height="19.0909" rx="9.54545" fill="white"/>
</clipPath>
<clipPath id="clip9_378_11987">
<rect width="170" height="0.596591" fill="white" transform="translate(20 336.318)"/>
</clipPath>
<clipPath id="clip10_378_11987">
<rect width="26.25" height="19.0909" fill="white" transform="translate(20 375.881)"/>
</clipPath>
<clipPath id="clip11_378_11987">
<rect x="20" y="375.881" width="26.25" height="19.0909" rx="2.38636" fill="white"/>
</clipPath>
<clipPath id="clip12_378_11987">
<rect width="26.25" height="19.0909" fill="white" transform="translate(20 415.585)"/>
</clipPath>
<clipPath id="clip13_378_11987">
<rect x="20" y="415.585" width="26.25" height="19.0909" rx="2.38636" fill="white"/>
</clipPath>
<clipPath id="clip14_378_11987">
<rect width="170" height="0.596591" fill="white" transform="translate(20 452.324)"/>
</clipPath>
<clipPath id="clip15_378_11987">
<rect width="170" height="0.596591" fill="white" transform="translate(20 604.716)"/>
</clipPath>
</defs>
</svg>
