<svg width="210" height="800" viewBox="0 0 210 800" fill="none" xmlns="http://www.w3.org/2000/svg">
<g id="Aside">
<rect width="210" height="800" fill="#F7F9FC"/>
<g id="Main">
<g id="Container">
<g id="Header">
<g id="Header_2">
<g id="Text">
<text id="Name" fill="#2E2E48" xml:space="preserve" style="white-space: pre" font-family="Outfit" font-size="20" font-weight="bold" letter-spacing="-0.03em"><tspan x="20" y="37.4">Krzysztof Piskorski</tspan></text>
<text id="Age: 22" fill="#ACB1C3" xml:space="preserve" style="white-space: pre" font-family="Outfit" font-size="9" letter-spacing="0.02em"><tspan x="20" y="50.33">Age: 22</tspan></text>
</g>
</g>
</g>
<g id="Divider" clip-path="url(#clip0_378_11987)">
<rect id="divider" x="20.1491" y="66.1491" width="169.702" height="0.298295" stroke="#E2E6EE" stroke-width="0.298295" stroke-linejoin="round"/>
</g>
<g id="Infos">
<g id="EmailRow">
<g id="Featured icon">
<g clip-path="url(#clip1_378_11987)">
<rect id="Rectangle" x="20" y="79.5966" width="19.0909" height="19.0909" rx="9.54545" fill="#E2E6EE"/>
<g id="basic/mail">
<path id="Icon" d="M33.5227 93.1193H25.5681C25.019 93.1193 24.5738 92.6741 24.5738 92.125V86.1158C24.597 85.5836 25.0355 85.1642 25.5681 85.1647H33.5227C34.0718 85.1647 34.517 85.6099 34.517 86.1591V92.125C34.517 92.6741 34.0718 93.1193 33.5227 93.1193ZM25.5681 87.0877V92.125H33.5227V87.0877L29.5454 89.7386L25.5681 87.0877ZM25.9659 86.1591L29.5454 88.5454L33.125 86.1591H25.9659Z" fill="#79819A"/>
</g>
</g>
</g>
<g id="Text_2">
<text id="Subtitle" fill="#79819A" xml:space="preserve" style="white-space: pre" font-family="DM Sans" font-size="7.5" letter-spacing="0.01em"><tspan x="48.6364" y="86.1541">Email</tspan></text>
<text id="Subtitle_2" fill="#47516B" xml:space="preserve" style="white-space: pre" font-family="DM Sans" font-size="8.5" font-weight="500" letter-spacing="0em"><tspan x="48.6364" y="97.8814">k.n.piskorski@gmail.com</tspan></text>
</g>
</g>
<g id="PhoneRow">
<g id="Featured icon_2">
<g clip-path="url(#clip2_378_11987)">
<rect id="Rectangle_2" x="20" y="114.301" width="19.0909" height="19.0909" rx="9.54545" fill="#E2E6EE"/>
<g id="basic/phone">
<path id="Icon_2" d="M33.0243 127.824C28.7827 127.83 25.5636 124.572 25.5682 120.368C25.5682 120.093 25.7907 119.869 26.0653 119.869H27.3775C27.6239 119.869 27.8332 120.05 27.8693 120.294C27.9561 120.878 28.1261 121.447 28.3744 121.983L28.4254 122.093C28.4965 122.246 28.4483 122.428 28.3108 122.527C27.9044 122.817 27.7491 123.401 28.0657 123.857C28.463 124.429 28.9638 124.929 29.5356 125.326C29.9914 125.643 30.5754 125.488 30.8656 125.081C30.9639 124.944 31.1462 124.896 31.2996 124.967L31.4094 125.017C31.9452 125.266 32.5139 125.436 33.098 125.522C33.3417 125.559 33.5227 125.768 33.5227 126.014V127.327C33.5227 127.601 33.2996 127.824 33.025 127.824L33.0243 127.824Z" fill="#79819A"/>
</g>
</g>
</g>
<g id="Text_3">
<text id="Subtitle_3" fill="#79819A" xml:space="preserve" style="white-space: pre" font-family="DM Sans" font-size="7.5" letter-spacing="0.01em"><tspan x="48.6364" y="120.859">Phone</tspan></text>
<text id="Subtitle_4" fill="#47516B" xml:space="preserve" style="white-space: pre" font-family="DM Sans" font-size="8.5" font-weight="500" letter-spacing="0em"><tspan x="48.6364" y="132.586">+48666723089</tspan></text>
</g>
</g>
<g id="Row">
<g id="Featured icon_3">
<g clip-path="url(#clip3_378_11987)">
<rect id="Rectangle_3" x="20" y="149.653" width="19.0909" height="19.0909" rx="9.54545" fill="#E2E6EE"/>
<g id="basic/location">
<path id="Icon_3" d="M29.5455 163.673C28.9175 163.138 28.3355 162.55 27.8054 161.918C27.0099 160.968 26.0653 159.553 26.0653 158.205C26.0646 156.796 26.9126 155.527 28.2136 154.988C29.5146 154.449 31.0121 154.747 32.0074 155.743C32.6619 156.395 33.0285 157.281 33.0256 158.205C33.0256 159.553 32.081 160.968 31.2855 161.918C30.7554 162.55 30.1734 163.138 29.5455 163.673ZM29.5455 156.713C29.0126 156.713 28.5202 156.997 28.2538 157.459C27.9874 157.92 27.9874 158.489 28.2538 158.95C28.5202 159.412 29.0126 159.696 29.5455 159.696C30.3692 159.696 31.0369 159.028 31.0369 158.205C31.0369 157.381 30.3692 156.713 29.5455 156.713Z" fill="#79819A"/>
</g>
</g>
</g>
<g id="Text_4">
<text id="Subtitle_5" fill="#79819A" xml:space="preserve" style="white-space: pre" font-family="DM Sans" font-size="7.5" letter-spacing="0.01em"><tspan x="48.6364" y="155.563">Address</tspan></text>
<text id="Subtitle_6" fill="#47516B" xml:space="preserve" style="white-space: pre" font-family="DM Sans" font-size="8.5" font-weight="500" letter-spacing="0em"><tspan x="48.6364" y="167.29">Wroc&#x142;aw, Kr&#xf3;lewiecka</tspan></text>
</g>
</g>
<g id="Row_2">
<g id="Featured icon_4">
<g clip-path="url(#clip4_378_11987)">
<rect id="Rectangle_4" x="20" y="191.466" width="19.0909" height="19.0909" rx="9.54545" fill="#E2E6EE"/>
<g id="basic/location_2" clip-path="url(#clip5_378_11987)">
<path id="Vector" d="M29.5454 196.239L23.5795 199.42L25.749 200.576V203.758L29.5454 205.784L33.3419 203.758V200.576L34.4266 199.998V203.663H35.5113V199.42L29.5454 196.239ZM33.2443 199.42L29.5454 201.393L25.8466 199.42L29.5454 197.448L33.2443 199.42ZM32.2572 203.127L29.5454 204.575L26.8337 203.127V201.155L29.5454 202.602L32.2572 201.155V203.127Z" fill="#79819A"/>
</g>
</g>
</g>
<g id="Text_5">
<text id="Subtitle_7" fill="#79819A" xml:space="preserve" style="white-space: pre" font-family="DM Sans" font-size="7.5" letter-spacing="0.01em"><tspan x="48.6364" y="190.268">Education</tspan></text>
<g id="Frame 1">
<text id="Subtitle_8" fill="#47516B" xml:space="preserve" style="white-space: pre" font-family="DM Sans" font-size="8.5" font-weight="500" letter-spacing="0em"><tspan x="48.6364" y="201.995">IT technician</tspan></text>
<text id="Subtitle_9" fill="#95AAFB" xml:space="preserve" style="white-space: pre" font-family="DM Sans" font-size="7.5" letter-spacing="0.01em"><tspan x="48.6364" y="211.154">ZSE Gniezno</tspan></text>
</g>
</g>
</g>
</g>
<g id="Divider_2" clip-path="url(#clip6_378_11987)">
<rect id="divider_2" x="20.1491" y="231.462" width="169.702" height="0.298295" stroke="#E2E6EE" stroke-width="0.298295" stroke-linejoin="round"/>
</g>
<g id="Socials">
<text id="Subtitle_10" fill="#79819A" xml:space="preserve" style="white-space: pre" font-family="DM Sans" font-size="7.5" letter-spacing="0.01em"><tspan x="20" y="251.467">Socials</tspan></text>
<g id="GithubRow">
<g id="Social icon">
<g clip-path="url(#clip7_378_11987)">
<rect x="20" y="267.875" width="19.0909" height="19.0909" rx="9.54545" fill="white"/>
<g id="GitHub">
<path id="Vector_2" d="M28.4517 266.98C23.8778 267.477 20.1989 271.156 19.7017 275.631C19.2045 280.304 21.8892 284.48 25.9659 286.071C26.2642 286.17 26.5625 285.972 26.5625 285.574V283.983C26.5625 283.983 26.1648 284.082 25.6676 284.082C24.2756 284.082 23.679 282.889 23.5795 282.193C23.4801 281.795 23.2812 281.497 22.9829 281.199C22.6846 281.099 22.5852 281.099 22.5852 281C22.5852 280.801 22.8835 280.801 22.9829 280.801C23.5795 280.801 24.0767 281.497 24.2756 281.795C24.7727 282.591 25.3693 282.79 25.6676 282.79C26.0653 282.79 26.3636 282.69 26.5625 282.591C26.6619 281.895 26.9602 281.199 27.5568 280.801C25.2699 280.304 23.5795 279.011 23.5795 276.824C23.5795 275.73 24.0767 274.636 24.7727 273.841C24.6733 273.642 24.5739 273.145 24.5739 272.449C24.5739 272.051 24.5739 271.455 24.8721 270.858C24.8721 270.858 26.2642 270.858 27.6562 272.151C28.1534 271.952 28.8494 271.852 29.5454 271.852C30.2415 271.852 30.9375 271.952 31.5341 272.151C32.8267 270.858 34.3182 270.858 34.3182 270.858C34.517 271.455 34.517 272.051 34.517 272.449C34.517 273.244 34.4176 273.642 34.3182 273.841C35.0142 274.636 35.5114 275.631 35.5114 276.824C35.5114 279.011 33.821 280.304 31.5341 280.801C32.1307 281.298 32.5284 282.193 32.5284 283.088V285.673C32.5284 285.972 32.8267 286.27 33.2244 286.17C36.9034 284.679 39.4886 281.099 39.4886 276.923C39.4886 270.957 34.4176 266.284 28.4517 266.98Z" fill="black"/>
</g>
</g>
</g>
<g id="Text_6">
<text id="Subtitle_11" fill="#79819A" xml:space="preserve" style="white-space: pre" font-family="DM Sans" font-size="7.5" letter-spacing="0.01em"><tspan x="48.6364" y="273.785">GitHub</tspan></text>
<text id="Subtitle_12" fill="#47516B" xml:space="preserve" style="white-space: pre" font-family="DM Sans" font-size="8" font-weight="500" letter-spacing="0em"><tspan x="48.6364" y="285.342">@atkki</tspan></text>
</g>
</g>
<g id="ResumeRow">
<g id="Featured icon_5">
<g clip-path="url(#clip8_378_11987)">
<rect id="Rectangle_5" x="20" y="302.58" width="19.0909" height="19.0909" rx="9.54545" fill="#95AAFB"/>
<g id="basic/link_02">
<path id="Icon_4" d="M27.788 316.368C26.7827 316.368 25.8763 315.763 25.4915 314.834C25.1067 313.905 25.3193 312.836 26.03 312.125L27.085 311.07L27.788 311.773L26.7335 312.827C26.3567 313.204 26.2095 313.754 26.3475 314.268C26.4854 314.783 26.8874 315.185 27.4022 315.323C27.9169 315.461 28.4661 315.314 28.843 314.937L29.8974 313.882L30.6004 314.586L29.5459 315.64C29.0806 316.108 28.4476 316.37 27.788 316.368ZM28.1395 314.234L27.4365 313.531L30.9519 310.016L31.6549 310.719L28.14 314.233L28.1395 314.234ZM32.0069 313.179L31.3034 312.476L32.3579 311.422C32.7398 311.046 32.8909 310.495 32.7537 309.977C32.6165 309.459 32.2121 309.054 31.6943 308.917C31.1764 308.78 30.6247 308.931 30.2489 309.313L29.194 310.367L28.491 309.664L29.5459 308.609C30.5179 307.646 32.0859 307.649 33.0537 308.617C34.0214 309.585 34.0249 311.153 33.0614 312.125L32.0069 313.179V313.179Z" fill="#F8F2FC"/>
</g>
</g>
</g>
<g id="Text_7">
<text id="Subtitle_13" fill="#79819A" xml:space="preserve" style="white-space: pre" font-family="DM Sans" font-size="7.5" letter-spacing="0.01em"><tspan x="48.6364" y="308.489">Web resume</tspan></text>
<text id="Subtitle_14" fill="#47516B" xml:space="preserve" style="white-space: pre" font-family="DM Sans" font-size="8.5" font-weight="500" letter-spacing="0em"><tspan x="48.6364" y="320.217">https://resume.kki.ovh</tspan></text>
</g>
</g>
</g>
<g id="Divider_3" clip-path="url(#clip9_378_11987)">
<rect id="divider_3" x="20.1491" y="335.467" width="169.702" height="0.298295" stroke="#E2E6EE" stroke-width="0.298295" stroke-linejoin="round"/>
</g>
<g id="Languagues">
<text id="Subtitle_15" fill="#79819A" xml:space="preserve" style="white-space: pre" font-family="DM Sans" font-size="7.5" letter-spacing="0.01em"><tspan x="20" y="355.472">Languages</tspan></text>
<g id="Row_3">
<g id=" poland" clip-path="url(#clip10_378_11987)">
<g id="artwork">
<g clip-path="url(#clip11_378_11987)">
<rect x="20" y="371.881" width="26.25" height="19.0909" rx="2.38636" fill="#AF010D"/>
<path id="vector" fill-rule="evenodd" clip-rule="evenodd" d="M20 371.881H46.25V381.426H20V371.881Z" fill="#F8F2FC"/>
</g>
</g>
</g>
<g id="Text_8">
<text id="Subtitle_16" fill="#47516B" xml:space="preserve" style="white-space: pre" font-family="DM Sans" font-size="8.5" font-weight="500" letter-spacing="0em"><tspan x="55.7954" y="379.131">Polish</tspan></text>
<text id="Subtitle_17" fill="#79819A" xml:space="preserve" style="white-space: pre" font-family="DM Sans" font-size="7.5" letter-spacing="0.01em"><tspan x="55.7954" y="390.177">Native</tspan></text>
</g>
</g>
<g id="Row_4">
<g id=" united-kingdom" clip-path="url(#clip12_378_11987)">
<g id="artwork_2">
<g clip-path="url(#clip13_378_11987)">
<rect x="20" y="410.585" width="26.25" height="19.0909" rx="2.38636" fill="#1A47B8"/>
<path id="vector_2" fill-rule="evenodd" clip-rule="evenodd" d="M22.7925 410.585H20V413.767L43.4424 429.676L46.25 429.676V426.494L22.7925 410.585Z" fill="white"/>
<path id="vector_3" d="M20.9314 410.585L46.25 427.812V429.676H45.3405L20 412.431V410.585H20.9314Z" fill="#F93939"/>
<path id="vector_4" fill-rule="evenodd" clip-rule="evenodd" d="M43.7501 410.585H46.2501V413.767C46.2501 413.767 30.0123 424.366 22.5001 429.676H20.0001V426.494L43.7501 410.585Z" fill="white"/>
<path id="vector_5" d="M46.25 410.585H45.4022L20 427.827V429.676H20.9314L46.25 412.445V410.585Z" fill="#F93939"/>
<path id="vector_6" fill-rule="evenodd" clip-rule="evenodd" d="M29.5463 410.585H36.7255V416.474H46.25V423.784H36.7255V429.676H29.5463V423.784H20V416.474H29.5463V410.585Z" fill="white"/>
<path id="vector_7" fill-rule="evenodd" clip-rule="evenodd" d="M31.0526 410.585H35.1974V417.928H46.25V422.333H35.1974V429.676H31.0526V422.333H20V417.928H31.0526V410.585Z" fill="#F93939"/>
</g>
</g>
</g>
<g id="Text_9">
<text id="Subtitle_18" fill="#47516B" xml:space="preserve" style="white-space: pre" font-family="DM Sans" font-size="8.5" font-weight="500" letter-spacing="0em"><tspan x="55.7954" y="413.836">English</tspan></text>
<text id="Subtitle_19" fill="#79819A" xml:space="preserve" style="white-space: pre" font-family="DM Sans" font-size="7.5" letter-spacing="0.01em"><tspan x="55.7954" y="424.881">C1: reading&#x2028;</tspan><tspan x="55.7954" y="432.881">B1: speaking, writing</tspan></text>
</g>
</g>
</g>
<g id="Divider_4" clip-path="url(#clip14_378_11987)">
<rect id="divider_4" x="20.1491" y="447.473" width="169.702" height="0.298295" stroke="#E2E6EE" stroke-width="0.298295" stroke-linejoin="round"/>
</g>
<g id="Skillset">
<text id="Subtitle_20" fill="#79819A" xml:space="preserve" style="white-space: pre" font-family="DM Sans" font-size="7.5" letter-spacing="0.01em"><tspan x="20" y="468.478">Technical skills</tspan></text>
<g id="Row_5">
<g id="Text_10">
<g id="TextRow">
<g id="misc/dot_04_l">
<path id="Icon_5" d="M25 492.822C23.8494 492.822 22.9167 491.889 22.9167 490.739C22.9167 489.588 23.8494 488.655 25 488.655C26.1506 488.655 27.0833 489.588 27.0833 490.739C27.0833 491.889 26.1506 492.822 25 492.822Z" fill="#95AAFB"/>
</g>
<text id="Text_11" fill="#232339" xml:space="preserve" style="white-space: pre" font-family="DM Sans" font-size="8.5" letter-spacing="0em"><tspan x="35" y="493.637">C++14, CMake, Conan</tspan></text>
</g>
<g id="TextRow_2">
<g id="misc/dot_04_l_2">
<path id="Icon_6" d="M25 506.208C23.8494 506.208 22.9167 505.276 22.9167 504.125C22.9167 502.974 23.8494 502.042 25 502.042C26.1506 502.042 27.0833 502.974 27.0833 504.125C27.0833 505.276 26.1506 506.208 25 506.208Z" fill="#95AAFB"/>
</g>
<text id="Text_12" fill="#232339" xml:space="preserve" style="white-space: pre" font-family="DM Sans" font-size="8.5" letter-spacing="0em"><tspan x="35" y="507.023">Lua</tspan></text>
</g>
<g id="TextRow_3">
<g id="misc/dot_04_l_3">
<path id="Icon_7" d="M25 519.595C23.8494 519.595 22.9167 518.662 22.9167 517.511C22.9167 516.361 23.8494 515.428 25 515.428C26.1506 515.428 27.0833 516.361 27.0833 517.511C27.0833 518.662 26.1506 519.595 25 519.595Z" fill="#95AAFB"/>
</g>
<text id="Text_13" fill="#232339" xml:space="preserve" style="white-space: pre" font-family="DM Sans" font-size="8.5" letter-spacing="0em"><tspan x="35" y="520.41">JavaScript (ES10), Node.js, TypeScript</tspan></text>
</g>
<g id="TextRow_4">
<g id="misc/dot_04_l_4">
<path id="Icon_8" d="M25 532.981C23.8494 532.981 22.9167 532.048 22.9167 530.898C22.9167 529.747 23.8494 528.814 25 528.814C26.1506 528.814 27.0833 529.747 27.0833 530.898C27.0833 532.048 26.1506 532.981 25 532.981Z" fill="#95AAFB"/>
</g>
<text id="Text_14" fill="#232339" xml:space="preserve" style="white-space: pre" font-family="DM Sans" font-size="8.5" letter-spacing="0em"><tspan x="35" y="533.796">CI / CD (GitHub Actions)</tspan></text>
</g>
<g id="TextRow_5">
<g id="misc/dot_04_l_5">
<path id="Icon_9" d="M25 546.367C23.8494 546.367 22.9167 545.435 22.9167 544.284C22.9167 543.133 23.8494 542.201 25 542.201C26.1506 542.201 27.0833 543.133 27.0833 544.284C27.0833 545.435 26.1506 546.367 25 546.367Z" fill="#95AAFB"/>
</g>
<text id="Text_15" fill="#232339" xml:space="preserve" style="white-space: pre" font-family="DM Sans" font-size="8.5" letter-spacing="0em"><tspan x="35" y="547.183">Linux, Docker</tspan></text>
</g>
<g id="TextRow_6">
<g id="misc/dot_04_l_6">
<path id="Icon_10" d="M25 559.754C23.8494 559.754 22.9167 558.821 22.9167 557.67C22.9167 556.52 23.8494 555.587 25 555.587C26.1506 555.587 27.0833 556.52 27.0833 557.67C27.0833 558.821 26.1506 559.754 25 559.754Z" fill="#95AAFB"/>
</g>
<text id="Text_16" fill="#232339" xml:space="preserve" style="white-space: pre" font-family="DM Sans" font-size="8.5" letter-spacing="0em"><tspan x="35" y="560.569">Apache2, nginx</tspan></text>
</g>
<g id="TextRow_7">
<g id="misc/dot_04_l_7">
<path id="Icon_11" d="M25 573.14C23.8494 573.14 22.9167 572.207 22.9167 571.057C22.9167 569.906 23.8494 568.973 25 568.973C26.1506 568.973 27.0833 569.906 27.0833 571.057C27.0833 572.207 26.1506 573.14 25 573.14Z" fill="#95AAFB"/>
</g>
<text id="Text_17" fill="#232339" xml:space="preserve" style="white-space: pre" font-family="DM Sans" font-size="8.5" letter-spacing="0em"><tspan x="35" y="573.955">MySQL, MariaDB, MongoDB</tspan></text>
</g>
<g id="TextRow_8">
<g id="misc/dot_04_l_8">
<path id="Icon_12" d="M25 586.526C23.8494 586.526 22.9167 585.594 22.9167 584.443C22.9167 583.293 23.8494 582.36 25 582.36C26.1506 582.36 27.0833 583.293 27.0833 584.443C27.0833 585.594 26.1506 586.526 25 586.526Z" fill="#95AAFB"/>
</g>
<text id="Text_18" fill="#232339" xml:space="preserve" style="white-space: pre" font-family="DM Sans" font-size="8.5" letter-spacing="0em"><tspan x="35" y="587.342">Version control, Git</tspan></text>
</g>
<g id="TextRow_9">
<g id="misc/dot_04_l_9">
<path id="Icon_13" d="M25 599.913C23.8494 599.913 22.9167 598.98 22.9167 597.83C22.9167 596.679 23.8494 595.746 25 595.746C26.1506 595.746 27.0833 596.679 27.0833 597.83C27.0833 598.98 26.1506 599.913 25 599.913Z" fill="#95AAFB"/>
</g>
<text id="Text_19" fill="#232339" xml:space="preserve" style="white-space: pre" font-family="DM Sans" font-size="8.5" letter-spacing="0em"><tspan x="35" y="600.728">Jira (basic), Trello</tspan></text>
</g>
<g id="TextRow_10">
<g id="misc/dot_04_l_10">
<path id="Icon_14" d="M25 613.299C23.8494 613.299 22.9167 612.366 22.9167 611.216C22.9167 610.065 23.8494 609.133 25 609.133C26.1506 609.133 27.0833 610.065 27.0833 611.216C27.0833 612.366 26.1506 613.299 25 613.299Z" fill="#95AAFB"/>
</g>
<text id="Text_20" fill="#232339" xml:space="preserve" style="white-space: pre" font-family="DM Sans" font-size="8.5" letter-spacing="0em"><tspan x="35" y="614.114">Scrum / Agile (theoretical)</tspan></text>
</g>
</g>
</g>
</g>
<g id="Divider_5" clip-path="url(#clip15_378_11987)">
<rect id="divider_5" x="20.1491" y="629.865" width="169.702" height="0.298295" stroke="#E2E6EE" stroke-width="0.298295" stroke-linejoin="round"/>
</g>
<g id="Soft skills">
<text id="Subtitle_21" fill="#79819A" xml:space="preserve" style="white-space: pre" font-family="DM Sans" font-size="7.5" letter-spacing="0.01em"><tspan x="20" y="649.87">Soft skills</tspan></text>
<g id="Row_6">
<g id="Text_21">
<g id="TextRow_11">
<g id="misc/dot_04_l_11">
<path id="Icon_15" d="M25 673.214C23.8494 673.214 22.9167 672.281 22.9167 671.131C22.9167 669.98 23.8494 669.047 25 669.047C26.1506 669.047 27.0833 669.98 27.0833 671.131C27.0833 672.281 26.1506 673.214 25 673.214Z" fill="#95AAFB"/>
</g>
<text id="Text_22" fill="#232339" xml:space="preserve" style="white-space: pre" font-family="DM Sans" font-size="8.5" letter-spacing="0em"><tspan x="35" y="674.029">Team player</tspan></text>
</g>
<g id="TextRow_12">
<g id="misc/dot_04_l_12">
<path id="Icon_16" d="M25 686.6C23.8494 686.6 22.9167 685.668 22.9167 684.517C22.9167 683.366 23.8494 682.434 25 682.434C26.1506 682.434 27.0833 683.366 27.0833 684.517C27.0833 685.668 26.1506 686.6 25 686.6Z" fill="#95AAFB"/>
</g>
<text id="Text_23" fill="#232339" xml:space="preserve" style="white-space: pre" font-family="DM Sans" font-size="8.5" letter-spacing="0em"><tspan x="35" y="687.416">Responsible</tspan></text>
</g>
<g id="TextRow_13">
<g id="misc/dot_04_l_13">
<path id="Icon_17" d="M25 699.987C23.8494 699.987 22.9167 699.054 22.9167 697.903C22.9167 696.753 23.8494 695.82 25 695.82C26.1506 695.82 27.0833 696.753 27.0833 697.903C27.0833 699.054 26.1506 699.987 25 699.987Z" fill="#95AAFB"/>
</g>
<text id="Text_24" fill="#232339" xml:space="preserve" style="white-space: pre" font-family="DM Sans" font-size="8.5" letter-spacing="0em"><tspan x="35" y="700.802">Resistant to stress</tspan></text>
</g>
<g id="TextRow_14">
<g id="misc/dot_04_l_14">
<path id="Icon_18" d="M25 713.373C23.8494 713.373 22.9167 712.44 22.9167 711.29C22.9167 710.139 23.8494 709.206 25 709.206C26.1506 709.206 27.0833 710.139 27.0833 711.29C27.0833 712.44 26.1506 713.373 25 713.373Z" fill="#95AAFB"/>
</g>
<text id="Text_25" fill="#232339" xml:space="preserve" style="white-space: pre" font-family="DM Sans" font-size="8.5" letter-spacing="0em"><tspan x="35" y="714.188">Creative</tspan></text>
</g>
<g id="TextRow_15">
<g id="misc/dot_04_l_15">
<path id="Icon_19" d="M25 726.759C23.8494 726.759 22.9167 725.827 22.9167 724.676C22.9167 723.526 23.8494 722.593 25 722.593C26.1506 722.593 27.0833 723.526 27.0833 724.676C27.0833 725.827 26.1506 726.759 25 726.759Z" fill="#95AAFB"/>
</g>
<text id="Text_26" fill="#232339" xml:space="preserve" style="white-space: pre" font-family="DM Sans" font-size="8.5" letter-spacing="0em"><tspan x="35" y="727.575">Fast learning</tspan></text>
</g>
<g id="TextRow_16">
<g id="misc/dot_04_l_16">
<path id="Icon_20" d="M25 740.146C23.8494 740.146 22.9167 739.213 22.9167 738.062C22.9167 736.912 23.8494 735.979 25 735.979C26.1506 735.979 27.0833 736.912 27.0833 738.062C27.0833 739.213 26.1506 740.146 25 740.146Z" fill="#95AAFB"/>
</g>
<text id="Text_27" fill="#232339" xml:space="preserve" style="white-space: pre" font-family="DM Sans" font-size="8.5" letter-spacing="0em"><tspan x="35" y="740.961">Aesthetic sense</tspan></text>
</g>
<g id="TextRow_17">
<g id="misc/dot_04_l_17">
<path id="Icon_21" d="M25 753.532C23.8494 753.532 22.9167 752.599 22.9167 751.449C22.9167 750.298 23.8494 749.366 25 749.366C26.1506 749.366 27.0833 750.298 27.0833 751.449C27.0833 752.599 26.1506 753.532 25 753.532Z" fill="#95AAFB"/>
</g>
<text id="Text_28" fill="#232339" xml:space="preserve" style="white-space: pre" font-family="DM Sans" font-size="8.5" letter-spacing="0em"><tspan x="35" y="754.347">Emotionally intelligent</tspan></text>
</g>
</g>
</g>
</g>
</g>
</g>
</g>
<defs>
<clipPath id="clip0_378_11987">
<rect width="170" height="0.596591" fill="white" transform="translate(20 66)"/>
</clipPath>
<clipPath id="clip1_378_11987">
<rect x="20" y="79.5966" width="19.0909" height="19.0909" rx="9.54545" fill="white"/>
</clipPath>
<clipPath id="clip2_378_11987">
<rect x="20" y="114.301" width="19.0909" height="19.0909" rx="9.54545" fill="white"/>
</clipPath>
<clipPath id="clip3_378_11987">
<rect x="20" y="149.653" width="19.0909" height="19.0909" rx="9.54545" fill="white"/>
</clipPath>
<clipPath id="clip4_378_11987">
<rect x="20" y="191.466" width="19.0909" height="19.0909" rx="9.54545" fill="white"/>
</clipPath>
<clipPath id="clip5_378_11987">
<rect width="11.9318" height="11.9318" fill="white" transform="translate(23.5795 195.045)"/>
</clipPath>
<clipPath id="clip6_378_11987">
<rect width="170" height="0.596591" fill="white" transform="translate(20 231.312)"/>
</clipPath>
<clipPath id="clip7_378_11987">
<rect x="20" y="267.875" width="19.0909" height="19.0909" rx="9.54545" fill="white"/>
</clipPath>
<clipPath id="clip8_378_11987">
<rect x="20" y="302.58" width="19.0909" height="19.0909" rx="9.54545" fill="white"/>
</clipPath>
<clipPath id="clip9_378_11987">
<rect width="170" height="0.596591" fill="white" transform="translate(20 335.318)"/>
</clipPath>
<clipPath id="clip10_378_11987">
<rect width="26.25" height="19.0909" fill="white" transform="translate(20 371.881)"/>
</clipPath>
<clipPath id="clip11_378_11987">
<rect x="20" y="371.881" width="26.25" height="19.0909" rx="2.38636" fill="white"/>
</clipPath>
<clipPath id="clip12_378_11987">
<rect width="26.25" height="19.0909" fill="white" transform="translate(20 410.585)"/>
</clipPath>
<clipPath id="clip13_378_11987">
<rect x="20" y="410.585" width="26.25" height="19.0909" rx="2.38636" fill="white"/>
</clipPath>
<clipPath id="clip14_378_11987">
<rect width="170" height="0.596591" fill="white" transform="translate(20 447.324)"/>
</clipPath>
<clipPath id="clip15_378_11987">
<rect width="170" height="0.596591" fill="white" transform="translate(20 629.716)"/>
</clipPath>
</defs>
</svg>
